<?xml version="1.0" encoding="UTF-8" standalone="no"?>
<svg id="svg2" xmlns:rdf="http://www.w3.org/1999/02/22-rdf-syntax-ns#" xmlns="http://www.w3.org/2000/svg" height="2101pt" width="1925.1pt" version="1.1" xmlns:cc="http://creativecommons.org/ns#" xmlns:dc="http://purl.org/dc/elements/1.1/" viewBox="0 0 1925.1384 2100.9907">
<g id="g4283" transform="translate(-3208.5 -11.859)">
<path id="rect4279" d="m4991.4 11.859c0.38 11.7-8.3288 23.091-15.469 31.111-9.78-5.91-15.531-18.15-23.981-25.73-0.7904 11.9-3.9096 23.479-7.98 34.639-15.1-7.709-17.3-23.309-18.3-37.629-12.06 4.73-15.85 26.819-11.921 38.659 2.16 11.25 22.29 9.9706 18.96 22.391-26.22 6.08-52.6 15.451-72.7 33.791-9.9704-2.61-4.7-13.401-9.3504-19.141-6.5096-0.86-1.7896 6.8097-3.6296 10.38-3.22 6.07-0.3704 13.291 3.38 17.741-21.24 22.97-41.03 47.38-57.6 73.97-4.08-4.46-3.3491-16.78-10.489-15.55-2.97 14.97 7.0788 26.939-0.9312 40.159 6.64 32.55 1.1803 67.331 0.6703 100.94-11.75 1.86-10.07-22.34-19.88-17.25 1.27 11.39 11.41 20.08 17.42 29.43-1.25 26.99-5.2797 54.809-17.63 79.109-7.38-3.08-13.88-9.7191-22.45-8.2891-0.63 8.27 8.9491 14.499 16.039 17.609-13.19 22.58-31.52 42.07-50.35 60.1-4.22 5.32-3.8494-4.9006-8.0094-3.8906-8 0.01-10.941-17.159-18.991-12.039 0.42 10.22 12.92 17.35 14.15 27.15-4.88 3.57-13.66 12.93-18.18 5.1-11.09 11.93-33.84 16.029-50.95 19.859-16.21 3.15 0.8297-24.689-12.02-22.039 0.71 8.79-2.98 17-2.7 25.55-18.87 3.91-38.28 6.3997-57.55 4.5297 0.85-8.89 0.5006-19.46-1.2094-27.3-10.25 0.12-4.6906 28.16-20.741 21.8-3.3-10.25-2.96-22.97-4.75-34.2 0.59-12.7 15.371-22.96 8.6109-36.65-6.47-1.08-12.021 5.4303-10.611 11.87-5.53-25.11 3.8-51.081-0.85-76.561 3.88-10.96 3.36-22.65 5.9-34 2.69-4.06-3.0494-9.7097-6.9094-6.8297-1.31 8.6 0.1 18.74-4.4203 26.47-8.31-21.27-18.13-41.97-28.83-62.08 7.09-3.71 3.6003-16.421 2.4203-23.781-2.14-4.66 1.8094-18.44-8.3406-13.75-1.32 8.34 1.0394 17.811-0.8406 25.541-8.45-14.93-17.54-29.49-26.78-43.93-2.2-10.54-2.0703-22.33-7.0203-32-9 0.5 0.8212 13.729-2.2188 18.789-11.34-19.91-36.711-32.849-35.611-56.789-8.38-3.76-4.38 5.8891-6.4 8.6891-13.03-7.93-27.06-14.249-41.55-19.019 44.6 0.91 66.19-55.091 59.18-92.911-8.39 10.94-19.139 20.65-30.719 28.4 0.67-13.26-2.1409-29.91-11.011-39.37-1.17 7.95-7.1894 18.501-15.259 23.361-8.83 3-8.8009-9.9703-15.461-12.92-9.98-6.8-19.659-17.93-32.669-17.03 9.47 10.47 5.2988 26.479 0.1188 37.809-9.27-10.52-11.699-26.4-20.039-36.92-5.7 7.49-7.3 20.101-13 27.591-6.5-10.28-11.329-25.451-6.9594-37.991-16.72 28.8-17.88 69.55 0.95 98.27-7.58-2.24-15.81 0.64-23.1-0.75-5.91-6.62 1.5297 6.9706-8.5703 1.8406-14.72 1.89-1.4003-25.73-13.97-24.78 0.51 8.63 1.1603 17.409 3.4703 25.769-4.77 1.09-9.5603 2.12-14.37 2.95 1.76-7.32-4.6406-1.08-7.2906 1.2-7.61 2.15-15.41 4.0109-23.2 5.4109-0.64-6.1 1.1412-13.961-3.5188-18.661-10.48-1.84-2.5503 10.201-3.5703 15.391-10.76 10.44-26.07 12.09-39.65 16.73 2.64-5.89 7.35-11.439 5.35-18.639-8.87-3.95-6.8403 7.1297-11.02 10.98-2.61 5.76-12.641 5.1994-10.091 13.159-10.54 4.14-21.189 8.1103-30.959 13.92-0.43-3.36 8.5397-22.649-3.8703-19.159-2.7 8.8-3.9294 18.03-6.4594 26.9-10.61 0.59 3.1791 3.2394 4.7891 2.7594-4.22 1.24-8.8091 1.0203-12.839 2.8703-6.16-3.3-14.29 8.38-21.35 10.85 0.02-6.1 0.5391-12.21-0.061-18.28-1.1392-0.43687-2.1269-0.63032-2.9797-0.61718-8.244 0.12701-3.858 19.465-1.239 22.936-16.78 17.08-31.391 36.451-41.741 58.091-5.34-13.1 7.4906-27.59 1.1406-40.88-11.51-2.08-2.2903 13.21-8.5203 18.63 0.49 8.36-5.5 23.521 5.75 26.241-3.48 4.26-5.6897 9.5294-7.0797 14.809-7.29 12.48-12.481 31.659-17.481 46.959-8.48 1.56-8.4387-11.11-14.169-14.53-14.4-0.55 2.5297 24.741 12.03 21.891-2.7 14.27-5.901 28.51-6.161 43.1-3.27-1.83-2.8397-7.48-7.1797-8.25-6.51-1.64-4.3793-14.621-13.509-10.291-1.97 13.34 14.09 21.82 21.42 29.47 4.51 13.83 1.5 28.06-0.9 41.92-8.32-5.64-10.511-24.21-23.311-21.47-2.69 9.97 11.71 13.4 12.67 22.93 0.08 4.97 4.9993 5.0603 8.9593 4.7203-1.516 20.862-6.1056 41.532-8.8046 62.255 0.2624-8.7666-16.102-21.714-17.495-9.0547 7.04 2.91 7.4503 14.899 16.97 12.109-2.33 16.1-5.1493 32.13-7.1593 48.27-6.34 0.27-6.66-13.58-15.35-8.15-1.55 5.78-0.8503 12.34 2.9297 17.12 4.16 4.65-1.1307 16.811 8.3093 15.491-2.92 20.57-6.2097 41.3-9.5297 61.8-4.57-6.35-2.409-25.551-13.989-19.791 2.02 8.03 2.3 25.23 13.8 23.12-3.68 22.68-7.5306 45.369-10.341 68.189-7.43 0.05-8.5007-17.42-18.191-13.9-1.81 9.83 8.3013 20.04 16.081 22.67-2.49 23.3-7.241 46.36-10.111 69.65-7.41-5.28-0.9196-24.18-12.33-18.67 2.44 23.84 13.89 46.611 3.5703 69.641-14.09 0.93-28.121-1.4603-30.891-15.92-1.89-5.19 0.9804-16.47-8.4796-12.57-1.29 8.36 1.4896 16.581 3.5296 24.591-11.21-1.69-25.52-2.2306-30.55-13.941 20.93-6.99 39.831-21.119 52.661-39.069 6.86-9.28 10.369-23.851 1.6094-33.041-0.82 9.27-9.79 14.809-17.55 18.009 4.66-12.47 7.6503-25.829 5.2203-39.169-0.85-6.06-3.0603-16.751-11.57-14.291-7.35 11.27-19.889 21.069-33.209 23.259-6.57-10.55-10.57-28.699-24.02-31.669-1.66 7.28-5.2903 23.29-16.77 19.4-17.77 3.06-27.99-25.841-18.93-37.331-13.17-7.68-27.001 8.58-31.961 19.7-5-3.33-2.91-14.859-7.55-17.659-18.1 18.83-11.84 48.57-3.2297 70.68 4.84 7.42 3.1697 16.291 5.1297 24.491-9.62-5.37-17.73-14.581-26.7-21.541 0.37-11.81 1.98-24.62-0.65-35.77-14.29-5.24 0.231 24.76-7.039 28.3-15.59-8.57-13.801-23.97-15.391-39.03-12.07-3.91-2.8603 11.091-5.8703 16.641-13.47-9.58-9.5687-27.45-14.419-41.23-5.56-13.84 9.1287-26.19 6.3687-40.1-10.11-4.89-5.4793 12.64-12.209 12.95-3.79-18.47-9.1797-36.751-12.13-55.311 9.77-0.14 3.0197-13.61 4.0797-19.52-1.14-4.8 5.02-18.45-5.65-14.5-3.39 7.92-0.81 16.83-0.7 25.12-4.33-12.17-5.7504-25.199-9.9204-37.439-9.45-14.99 13.411-27.621 5.811-42.761-9.04-4.33-5.0103 10.671-8.3703 11.391-4.04-18.56-9.3397-36.921-15.98-54.741 4.11-8.65 3.2987-21.6 3.1687-32.32-12.18-4.55-5.1687 14.521-8.1687 19.431-5.7-15.35-12.82-30.161-21.02-44.311 0.62-12.03 3.0003-25.909-6.0297-35.509-13.98 0.86 5.24 17.909-0.6 25.789-16.97-7.68-16.88-27.52-19.37-43.35-10.77-8.18-3.231 16.321-9.361 6.4406-13.92-11.53-20.669-26.391-18.419-44.491-12.21-4.84-3.8313 12.55-7.1313 17.4-8.05-8-17.2-14.749-26.7-20.869-3.28-7.18-3.3797-23.371-14.23-21.461-2.47 6.6 3.9 11.48 5.3 17.37-8.99 0.51-17.04-5.3997-26.02-3.1797-9.42-0.5-19.36 7.2391-28.15 1.3391-1.89-4.8 0.1613-16.649-9.3187-12.739-0.45 6.55 2.189 12.779 2.339 19.289-8.16 2.59-16.26 5.42-24.43 8-3.12-8.19-9.7994-17.64-19.809-16.18-2.73 9.74 12.529 9.3597 12.309 19.38-5.33 1.77-10.63 3.63-15.73 6 2.06-7.8-3.8297-3.3691-4.4797 1.6609-6.84 2.4-15.89 11.959-21.37 2.1891-5.9-5.34-1.4707-21.749-12.691-18.219-1.43 10.33 4.6804 20.5 10.27 28.23-11.6 7.27-17.509 20.109-25.009 31.039-3.74-5.47 2.86-26.9-10.3-23.35-0.35 11.32 4.57 22.561 3.1 34.111-5.49 8.88-10.521 18.12-16.581 26.62-8.08-4.72-0.469-22.921-13.439-18.861 1.32 8.44 0.9397 23.49 9.8797 25.35-7.15 13.67-15.98 26.51-22.58 40.53-4.46-5.31-2.0597-18.829-12.38-15.739 0.58 7.77 2.449 18.929 7.939 23.439-8.95 15.18-15.219 31.641-21.559 48.011-4.43-6.14-2.711-21.11-14.311-18.37 0.44 10.64 7.0813 20.34 10.331 30.52-4.89 16.64-9.8503 33.3-13.97 50.18-5.93-7.84-1.431-26.429-13.361-24.759-0.13 12.25 3.5813 25.25 10.281 35.8-3.71 16.39-9.0203 32.409-10.57 49.289-5.42-3.76-9.4203-10.81-12.82-16.68-9.36-1.86-4.0707 9.67-3.7907 14.25 6.76 0.31 6.871 9.8097 14.011 9.1797-1.47 12.18-4.7197 24.22-5.9797 36.5-6.79 3.31-9.89-5.9-16.25-3.3-4.55 9.27 8.7494 11.5 15.209 10.73-0.63 16.34 3.69 32.461 5.6 48.641-3.73-3.12-4.2394-9.8694-8.8594-12.709-7.39-2.49-5.77 6.0788-3.1 9.4688 4.39 5.22 5.4397 15.211 13.93 15.091 4.14 15.94 6.719 32.27 10.789 48.25-7.38-3.22-8.6997-12.95-15.73-16.92-7.62-2.25-5.9293 7.8503-1.7593 10.27 6.06 5.46 9.1993 16.38 19.309 14.2 3.04 16.3 7.3604 32.34 11.07 48.5-5.98-2.64-9.17-12.041-17.4-9.4906-1.62 10.02 11.46 15.671 19.33 17.461 4.69 17.78 9.1597 35.66 14.98 53.12-8.48-3.28-9.319-24.831-20.489-19.761 2.8 11.19 9.5503 27.391 23.22 28.891 5.7 12.09 14.34 22.39 21.85 33.27-6.18 2.3-25.091-15.481-25.541-1.1906 10.71 5.53 22.531 10.42 34.741 11.3 9.95 11.6 20.58 22.659 30.38 34.409-8.03-3.63-17.281-3.4997-24.841-8.3297-3.59-2.92-13.62-2.8203-9.4203 4.2297 12.26 6.7 30.95 13.581 41.35 10.561 10.81 12.94 23.791 23.849 34.911 36.509-5.53-1.69-20.551-7.98-17.411 3.3 8.53 1.33 16.511 7.4103 25.231 2.9203 10.21 9.04 19.479 20.58 32.709 25.17-3.29 4.54-26.901-6.7306-22.191 7.3094 7.78-1.16 24.851 5.7909 25.741-4.5891 14.06 8.06 28.071 16.38 42.891 23.08-3.49 3.51-17.261-3.4703-12.531 7.3297 25.11 1.7 48.391 8.7497 70.611 20.68-5.37 4.28-26.59-6.6694-20.9 6.5906 11.44 0.35 29.45 6.59 36.12 0.4 15.64 6.46 31.189 13.219 47.439 18.059-4.9 4.82-28.349-6.9397-24.389 7.4703 9.43 0.82 18.949 0.1403 28.419 0.2203 13.21-8.04 32.611 8.0794 48.431-1.9406 7.59 10.23 20.189 13.99 31.909 17.27-8.37 1.08-15.32 6.7803-23.85 6.8203-6.69 12.19 11.27 5.5394 16.68 3.8594 5.75-6.6 19.33 2.8503 20.57-6.6797 20.05 3.06 40.16 6.11 60.42 7.7-1.6 3.53-13.14 1.4297-8.2797 9.4297 9.99 0.56 22.39-4.1994 29.55-8.2094 27.78 1.9 55.61 1.9294 83.45 1.8094-2.41 1.95-16.401 0.9906-12.181 10.491 10.29-2.84 27.761-1.3809 31.711-11.561 12.46-0.98 24.87-3.2488 37.4-2.2188-1.58 15.33 0.6403 33.34-1.0297 47.03-0.13-7.35-14.161-17.3-14.341-5.4203 7.6 2.55 4.9596 14.63 13.73 14.05 0.18 17.32 0.441 34.689-0.189 52.009-4.91 2.57-7.0003-9.1391-13.07-4.7391-3.69 8.01 6.2803 11.89 12.22 13.32 0.03 15.4 0.9994 30.899-0.6906 46.259-4.82-4.26-5.2107-15.761-13.541-12.591-2.48 9.88 6.59 18.15 13.2 24.25 1.54 16.47-1.5893 33 0.2407 49.42-5.75 0.08-6.7807-13.609-14.391-9.6594-1.98 7.47 5.8503 20.029 14.47 17.739-0.23 15.32 0.1 30.681-0.35 45.981-1.02-6.61-15.839-17.141-15.459-5.0906 5.54 4.25 8.67 11.861 15.35 14.291 0.14 21.72 1.4093 43.44 1.5593 65.18-9.21 1.5-5.7603-15.58-15.67-11.22-2.39 11.09 8.48 18.44 15.3 23.77 0.25 17.67 0.4207 35.429-0.1593 53.109-0.86-4.13-3.1607-15.019-9.4907-9.0594 1.14 12.36 6.9 25.18 10.8 33.87-0.04 18.19 0.111 36.379-0.08 54.589-10.52 2.28-13.52-13.299-22.32-11.159-3.77 12.23 12.381 18.26 21.981 18.68 0.95 20.43 1.3797 40.991 1.8797 61.491-5.98-3.62-7.3007-16.711-15.891-14.211-1.42 9.86 7.44 21.24 15.3 24.67 0.37 17.13-0.06 34.291 0.2797 51.441-5.23-0.97-2.6987-15.761-11.569-11.131-1.5 9.72 5.8187 21.52 12.219 26.8-0.02 18.14 1.0003 37.101-0.3797 54.791-5.35-5.1-9.4393-15.371-17.859-13.541-1.56 9.88 10.99 18.41 18.28 21.62-0.34 18.13 1.1197 36.221 1.2297 54.361-7.43 1.42-5.7993-14.701-14.509-10.061-2.96 9.33 5.759 16.541 13.339 19.661 7.51 7.95-8.5 20.95 3.3 24.6 14.96 11.32 30.111 22.619 47.211 30.739 66.86 33.1 137.35 63.34 212.69 67.32 74.98 4.15 150.72 5.22 225.24-5.55 68.1-20.42 139.68-38.659 201.32-76.559 10.02-4.28 6.699-15.37 6.739-23.8 3.27-2.69 6.73-5.2612 9.3-8.6812 2.76-7.37-7.6894-6.74-10.059-2.2-2.13-7.91-1.9106-17.379-2.3906-25.819 7.82 0.56 6.961-9.1609 10.311-13.961 3.4-10.74-10.72-6.1894-11.17 0.7906-0.81-10.64-3.0603-21.41-1.8203-32.07 7.08-10.79 11.45-24.51 9.8797-37.37-9.21-4.26-9.219 9.16-12.039 14.5-1.77-19.67-3.8397-39.5-3.9797-59.23 8.2-5.27 6.1187-16.589 9.9687-24.509 1.16-5.71 6.3813-10.54 4.0313-16.72-7.57-2.97-10.151 7.3703-16.511 9.3203-1.87-10.31-2.009-21.021-2.189-31.411 3.21-6.73 9.0593-11.9 11.709-19.02 5.79-2.59 7.68-16.669-1.8-13.469-5.02 4.74-6.8906 11.719-10.991 17.119-2.22-12.99-2.1294-26.29-3.4594-39.4 6.51-7.07 15.359-23.939 14.209-37.159-10.83-5.65-8.91 10.181-15.45 13.391-2.14-16.63-3.0687-33.571-3.6187-50.331 10.32-3.55 12.95-17.729 22.8-22.719 3.59-1.53 2.5593-9.06-1.8907-8.1-10.75 3.47-14.069 15.259-21.709 22.409-1.7-17.15-3.1807-34.48-3.4907-51.75 8.1-4.72 20.86-10.56 20.43-21.1-9.28-1.53-13.75 9.4097-21.55 12.38-1.5-22.99-4.0993-45.999-4.5093-68.989 9.13-1.62 12.17-11.45 15.82-18.65 2.29-4.01 2.9197-12.26-4.5703-9.1-5.98 4.94-4.5407 17.929-12.591 19.589-0.97-26.88-5.0193-53.66-4.8093-80.55 10.16-3.18 13.42-14.14 18.83-22.17 2.42-3.09 2.8794-10.499-3.4406-7.7188-7.62 4.7-7.9287 18.66-16.619 21.5-1.74-18.17-3.08-36.401-3.95-54.611 1.73-9.15 15.959-16.93 15.289-28.62-8.87-2.67-11.05 9.1012-16.55 13.331 0.51-26.2-0.219-52.401 0.361-78.581 10.44 0.98 15.829-13.97 16.289-22.63-10.29-3.97-8.6393 13.79-16.609 14.08 0.28-18-0.1307-36.01 0.2593-54 6.45-5.45 17.81-9.7591 15.32-20.189-8.57-3.9-7.7093 10.15-15.559 9.3297 1.39-16.36-3.59-34.57 4.95-48.97 9.39-6.41 6.8193-18.92 8.6593-28.2-14.33-4.46-5.62 18.82-13.5 21.05 0.52-32.2-1.1193-64.649 0.8407-96.709 1.89-11.25 15.849-16.13 16.859-26.75-8.18-6.7-13.599 8.67-17.409 10.3 1.25-26.82-3.951-55.201 2.339-81.341 8.65 0.3 13.8-7.0497 20.72-11.08 1.9-3.48 3.24-11.659-3.7-9.0094-5.16 6.03-12.45 9.439-19.95 11.639 0.67-17.02-0.08-34.06 0.45-51.07 6.13-4.35 11.43-12.56 11.27-20.18-6.36-3.8-7.6807 5.1-11.641 6.2 0.88-10.49-1.02-23.599 0.8-32.359 21.29-3.95 24.14 24.919 44.9 22.039 2.36-8.4-7.93-11.609-12.3-16.639 25.87 0.9 51.231-5.6806 76.411-10.241 8.15 6.65 17.49 11.44 28.73 7.9703 4.6-11.23-15.72-6.3206-17.85-11.141 16.67-5.29 34.41-9.069 49.22-18.939 16.13 2.17 32.4 0.74968 48.4-2.0203 7.48 5.91 22.81 11.77 33.7 6.1797 5.3104-1.32 16.22-0.14 12.8-9.15-6.8496-2.49-15.411-0.27-21.531-2.2 20.81-4.19 40.85-11.37 60.87-18.2 11.37 5.15 24.85 10.15 36.87 5.7203 3.1096-12.88-15.16-4.8906-20.02-12.791 1.7296-3.26 5.6808-4.2788 8.8608-5.6188 33.22-4.77 57.91-36.061 93.91-26.631 4.4984-13.59-15.87-3.2594-21.621-7.2594 19.41-12.11 40-24.46 54-42.8 16.37-10.09 35.99-11.19 52.88-21.17-0.4704-14.47-19.14 0.40093-27.65 0.61093 7.0104-10.44 13.49-21.311 20.5-31.711 13.45-1.53 26.3-9.8591 30.1-21.089-9.1696-6.02-15.84 7.1497-23.85 9.5297 8.0096-15.57 15.961-31.19 23.231-47.13 12.73-1.4 30.579-13.84 27.239-28.95-9.26-3.42-12.33 10.53-20.439 13.13 9.0696-18.06 8.2096-40.32 21.23-55.73 2.7096-7.2 5.4096-14.551 8.7592-20.991-6.2-11.97-9.3896 8.0806-15.859 9.8406 4.2-18.72 7.52-37.651 9.7792-56.711 13.151-4.17 11.79-24.12 16.8-35.23-5.3488-12.55-12.259 6.0803-13.079 11.57-1.74-21.46 7.2792-52.621-8.2704-72.691 1.02-5.84 1.9096-11.74 0.6296-17.62 13.21 0.23 8.3408-19.669 14.941-27.319-4.3504-3.49-1.1496-17.001-8.7296-12.711-2.2304 7.84-2.9416 16.171-6.5312 23.641-3.84-31.11-8.28-63.24-19.15-93.12 5.3104-15.51 11.891-31.941 8.2312-49.291-8.5896-2.83-5.36 12.16-9.72 15.62-7.56-36.23-25.43-69.86-47.3-99.43-0.01-10.72-2.2704-21.739-5.8-31.659-8.34-4.02-6.62 13.3-12.78 15.58-13.25-3.12-27.11-1.7106-40.52-0.79063 8.24-9.93 12.899-22.349 14.43-35.089 0.3-7.69 0.8696-19.721-8.6408-21.931z" fill="#1ba01b"/>
<path id="path4" d="m4991.4 11.859c0.38 11.7-8.3288 23.091-15.469 31.111-9.78-5.91-15.531-18.15-23.981-25.73-0.79 11.9-3.9097 23.479-7.9797 34.639-15.01-7.71-17.209-23.31-18.189-37.63-12.06 4.73-15.85 26.819-11.92 38.659 2.16 11.25 22.289 9.9706 18.959 22.391-26.22 6.08-52.6 15.451-72.7 33.791-9.97-2.61-4.7-13.401-9.35-19.141-6.51-0.86-1.7897 6.8097-3.6297 10.38-3.22 6.07-0.3703 13.291 3.3797 17.741-21.24 22.97-41.03 47.38-57.6 73.97-4.08-4.46-3.3491-16.78-10.489-15.55-2.97 14.97 7.0788 26.939-0.9312 40.159 6.64 32.55 1.1803 67.331 0.6703 100.94-11.75 1.86-10.07-22.34-19.88-17.25 1.27 11.39 11.41 20.08 17.42 29.43-1.25 26.99-5.2797 54.809-17.63 79.109-7.38-3.08-13.88-9.7191-22.45-8.2891-0.63 8.27 8.9491 14.499 16.039 17.609-13.19 22.58-31.52 42.07-50.35 60.1-4.22 5.32-3.8494-4.9006-8.0094-3.8906-8 0.01-10.941-17.159-18.991-12.039 0.42 10.22 12.92 17.35 14.15 27.15-4.88 3.57-13.66 12.93-18.18 5.1-11.09 11.93-33.84 16.029-50.95 19.859-16.21 3.15 0.8297-24.689-12.02-22.039 0.71 8.79-2.98 17-2.7 25.55-18.87 3.91-38.28 6.3997-57.55 4.5297 0.85-8.89 0.5006-19.46-1.2094-27.3-10.25 0.12-4.6906 28.16-20.741 21.8-3.3-10.25-2.96-22.97-4.75-34.2 0.59-12.7 15.371-22.96 8.6109-36.65-6.47-1.08-12.021 5.4303-10.611 11.87-5.53-25.11 3.8-51.081-0.85-76.561 3.88-10.96 3.36-22.65 5.9-34 2.69-4.06-3.0494-9.7097-6.9094-6.8297-1.31 8.6 0.1 18.74-4.4203 26.47-8.31-21.27-18.13-41.97-28.83-62.08 7.09-3.71 3.6003-16.421 2.4203-23.781-2.14-4.66 1.8094-18.44-8.3406-13.75-1.32 8.34 1.0394 17.811-0.8406 25.541-8.45-14.93-17.54-29.49-26.78-43.93-2.2-10.54-2.0703-22.33-7.0203-32-9 0.5 0.8212 13.729-2.2188 18.789-11.34-19.91-36.711-32.849-35.611-56.789-8.38-3.76-4.38 5.8891-6.4 8.6891-13.03-7.93-27.06-14.249-41.55-19.019 44.6 0.91 66.19-55.091 59.18-92.911-8.39 10.94-19.139 20.65-30.719 28.4 0.67-13.26-2.1409-29.91-11.011-39.37-1.17 7.95-7.1894 18.501-15.259 23.361-8.83 3-8.8009-9.9703-15.461-12.92-9.98-6.8-19.659-17.93-32.669-17.03 9.47 10.47 5.2988 26.479 0.1188 37.809-9.27-10.52-11.699-26.4-20.039-36.92-5.8 7.491-7.4 20.102-13.1 27.592-6.5-10.28-11.329-25.451-6.9594-37.991-16.72 28.8-17.88 69.55 0.95 98.27-7.58-2.24-15.81 0.64-23.1-0.75-5.91-6.62 1.5297 6.9706-8.5703 1.8406-14.72 1.89-1.4003-25.73-13.97-24.78 0.51 8.63 1.1603 17.409 3.4703 25.769-4.77 1.09-9.5603 2.12-14.37 2.95 1.76-7.32-4.6406-1.08-7.2906 1.2-7.61 2.15-15.41 4.0109-23.2 5.4109-0.64-6.1 1.1412-13.961-3.5188-18.661-10.48-1.84-2.5503 10.201-3.5703 15.391-10.76 10.44-26.07 12.09-39.65 16.73 2.64-5.89 7.35-11.439 5.35-18.639-8.87-3.95-6.8403 7.1297-11.02 10.98-2.61 5.76-12.641 5.1994-10.091 13.159-10.54 4.14-21.189 8.1103-30.959 13.92-0.43-3.36 8.5397-22.649-3.8703-19.159-2.7 8.8-3.9294 18.03-6.4594 26.9-10.61 0.59 3.1791 3.2394 4.7891 2.7594 1.92-0.19 2.9306-1.8994 4.0406-3.2594 18.12-16.67 46.069-20.66 68.859-29.02-22.54 24.5-37.279 54.809-49.569 85.459-26.2 67.4-42.061 138.21-56.041 208.99-39.92 213.73-56.67 430.96-70.28 647.67-3.9 81.63-7.9303 163.69-9.9703 245.54-4.5 213.54-10.919 426.68 10.591 638.95 2.65 21.69 4.4394 44.271 15.209 63.791-31.86-15.48-67.329-27.94-91.409-55.02-1.35-188.77-3.5806-377.73-5.2906-566.56-0.81-21.01 1.1506-41.971 1.1906-62.961-0.7-8.25-0.1012-16.469 0.7688-24.639 0.06-9.48-0.05-18.951 0.2-28.391 2.2-142.15 5.91-284.11 7.9-426 1.21-21.33-0.6288-42.969 3.4812-64.059 21.32-137.62 42.149-275.33 63.709-412.91-13.11-34.34 1.9503-73.6 13.42-106.88 1.43-4.29 2.9091-8.5597 4.3891-12.83-0.04-1.08-0.079-2.1503-0.1188-3.2203-7.29 12.48-12.481 31.659-17.481 46.959-8.48 1.56-8.4388-11.11-14.169-14.53-14.4-0.55 2.5297 24.741 12.03 21.891-2.7 14.27-5.9009 28.51-6.1609 43.1-3.27-1.83-2.8397-7.48-7.1797-8.25-6.51-1.64-4.3794-14.621-13.509-10.291-1.97 13.34 14.09 21.82 21.42 29.47 4.51 13.83 1.5 28.06-0.9 41.92-8.32-5.64-10.511-24.21-23.311-21.47-2.69 9.97 11.71 13.4 12.67 22.93 0.08 4.97 4.9994 5.0603 8.9594 4.7203-1.516 20.862-6.1056 41.532-8.8047 62.255 0.2624-8.7666-16.101-21.714-17.495-9.0547 7.04 2.91 7.4503 14.899 16.97 12.109-2.33 16.1-5.1494 32.13-7.1594 48.27-6.34 0.27-6.66-13.58-15.35-8.15-1.55 5.78-0.8503 12.34 2.9297 17.12 4.16 4.65-1.1306 16.811 8.3094 15.491-2.92 20.57-6.2097 41.3-9.5297 61.8-4.57-6.35-2.4091-25.551-13.989-19.791 2.02 8.03 2.3 25.23 13.8 23.12-3.68 22.68-7.5306 45.369-10.341 68.189-7.43 0.05-8.5006-17.42-18.191-13.9-1.81 9.83 8.3012 20.04 16.081 22.67-2.49 23.3-7.2409 46.36-10.111 69.65-7.41-5.28-0.9197-24.18-12.33-18.67 2.44 23.84 13.89 46.611 3.5703 69.641-14.09 0.93-28.121-1.4603-30.891-15.92-1.89-5.19 0.9803-16.47-8.4797-12.57-1.29 8.36 1.4897 16.581 3.5297 24.591-11.21-1.69-25.52-2.2306-30.55-13.941 20.93-6.99 39.831-21.119 52.661-39.069 6.86-9.28 10.369-23.851 1.6094-33.041-0.82 9.27-9.79 14.809-17.55 18.009 4.66-12.47 7.6503-25.829 5.2203-39.169-0.85-6.06-3.0603-16.751-11.57-14.291-7.35 11.27-19.889 21.069-33.209 23.259-6.57-10.55-10.57-28.699-24.02-31.669-1.66 7.28-5.2903 23.29-16.77 19.4-17.77 3.06-27.99-25.841-18.93-37.331-13.17-7.68-27.001 8.58-31.961 19.7-5-3.33-2.91-14.859-7.55-17.659-18.1 18.83-11.84 48.57-3.2297 70.68 4.84 7.42 3.1697 16.291 5.1297 24.491-9.62-5.37-17.73-14.581-26.7-21.541 0.37-11.81 1.98-24.62-0.65-35.77-14.29-5.24 0.2309 24.76-7.0391 28.3-15.59-8.57-13.801-23.97-15.391-39.03-12.07-3.91-2.8603 11.091-5.8703 16.641-13.47-9.58-9.5688-27.45-14.419-41.23-5.56-13.84 9.1288-26.19 6.3688-40.1-10.11-4.89-5.4794 12.64-12.209 12.95-3.79-18.47-9.1797-36.751-12.13-55.311 9.77-0.14 3.0197-13.61 4.0797-19.52-1.14-4.8 5.02-18.45-5.65-14.5-3.39 7.92-0.81 16.83-0.7 25.12-4.33-12.17-5.7503-25.199-9.9203-37.439-9.45-14.99 13.411-27.621 5.8109-42.761-9.04-4.33-5.0103 10.671-8.3703 11.391-4.04-18.56-9.3397-36.921-15.98-54.741 4.11-8.65 3.2988-21.6 3.1688-32.32-12.18-4.55-5.1688 14.521-8.1688 19.431-5.7-15.35-12.82-30.161-21.02-44.311 0.62-12.03 3.0003-25.909-6.0297-35.509-13.98 0.86 5.24 17.909-0.6 25.789-16.97-7.68-16.88-27.52-19.37-43.35-10.77-8.18-3.2309 16.321-9.3609 6.4406-13.92-11.53-20.669-26.391-18.419-44.491-12.21-4.84-3.8312 12.55-7.1312 17.4-8.05-8-17.2-14.749-26.7-20.869-3.28-7.18-3.3797-23.371-14.23-21.461-2.47 6.6 3.9 11.48 5.3 17.37-8.99 0.51-17.04-5.3997-26.02-3.1797-9.42-0.5-19.36 7.2391-28.15 1.3391-1.89-4.8 0.1612-16.649-9.3188-12.739-0.45 6.55 2.1891 12.779 2.3391 19.289-8.16 2.59-16.26 5.42-24.43 8-3.12-8.19-9.7994-17.64-19.809-16.18-2.73 9.74 12.529 9.3597 12.309 19.38-5.33 1.77-10.63 3.63-15.73 6 2.06-7.8-3.8297-3.3691-4.4797 1.6609-6.84 2.4-15.89 11.959-21.37 2.1891-5.9-5.34-1.4706-21.749-12.691-18.219-1.43 10.33 4.6803 20.5 10.27 28.23-11.6 7.27-17.509 20.109-25.009 31.039-3.74-5.47 2.86-26.9-10.3-23.35-0.35 11.32 4.57 22.561 3.1 34.111-5.49 8.88-10.521 18.12-16.581 26.62-8.08-4.72-0.4691-22.921-13.439-18.861 1.32 8.44 0.9397 23.49 9.8797 25.35-7.15 13.67-15.98 26.51-22.58 40.53-4.46-5.31-2.0597-18.829-12.38-15.739 0.58 7.77 2.4491 18.929 7.9391 23.439-8.95 15.18-15.219 31.641-21.559 48.011-4.43-6.14-2.7109-21.11-14.311-18.37 0.44 10.64 7.0812 20.34 10.331 30.52-4.89 16.64-9.8503 33.3-13.97 50.18-5.93-7.84-1.4309-26.429-13.361-24.759-0.13 12.25 3.5812 25.25 10.281 35.8-3.71 16.39-9.0203 32.409-10.57 49.289-5.42-3.76-9.4203-10.81-12.82-16.68-9.36-1.86-4.0706 9.67-3.7906 14.25 6.76 0.31 6.8709 9.8097 14.011 9.1797-1.47 12.18-4.7197 24.22-5.9797 36.5-6.79 3.31-9.89-5.9-16.25-3.3-4.55 9.27 8.7494 11.5 15.209 10.73-0.63 16.34 3.69 32.461 5.6 48.641-3.73-3.12-4.2394-9.8694-8.8594-12.709-7.39-2.49-5.77 6.0788-3.1 9.4688 4.39 5.22 5.4397 15.211 13.93 15.091 4.14 15.94 6.7191 32.27 10.789 48.25-7.38-3.22-8.6997-12.95-15.73-16.92-7.62-2.25-5.9294 7.8503-1.7594 10.27 6.06 5.46 9.1994 16.38 19.309 14.2 3.04 16.3 7.3603 32.34 11.07 48.5-5.98-2.64-9.17-12.041-17.4-9.4906-1.62 10.02 11.46 15.671 19.33 17.461 4.69 17.78 9.1597 35.66 14.98 53.12-8.48-3.28-9.3191-24.831-20.489-19.761 2.8 11.19 9.5503 27.391 23.22 28.891 5.7 12.09 14.34 22.39 21.85 33.27-6.18 2.3-25.091-15.481-25.541-1.1906 10.71 5.53 22.531 10.42 34.741 11.3 9.95 11.6 20.58 22.659 30.38 34.409-8.03-3.63-17.281-3.4997-24.841-8.3297-3.59-2.92-13.62-2.8203-9.4203 4.2297 12.26 6.7 30.95 13.581 41.35 10.561 10.81 12.94 23.791 23.849 34.911 36.509-5.53-1.69-20.551-7.98-17.411 3.3 8.53 1.33 16.511 7.4103 25.231 2.9203 10.21 9.04 19.479 20.58 32.709 25.17-3.29 4.54-26.901-6.7306-22.191 7.3094 7.78-1.16 24.851 5.7909 25.741-4.5891 14.06 8.06 28.071 16.38 42.891 23.08-3.49 3.51-17.261-3.4703-12.531 7.3297 25.11 1.7 48.391 8.7497 70.611 20.68-5.37 4.28-26.59-6.6694-20.9 6.5906 11.44 0.35 29.45 6.59 36.12 0.4 15.64 6.46 31.189 13.219 47.439 18.059-4.9 4.82-28.349-6.9397-24.389 7.4703 9.43 0.82 18.949 0.1403 28.419 0.2203 13.21-8.04 32.611 8.0794 48.431-1.9406 7.59 10.23 20.189 13.99 31.909 17.27-8.37 1.08-15.32 6.7803-23.85 6.8203-6.69 12.19 11.27 5.5394 16.68 3.8594 5.75-6.6 19.33 2.8503 20.57-6.6797 20.05 3.06 40.16 6.11 60.42 7.7-1.6 3.53-13.14 1.4297-8.2797 9.4297 9.99 0.56 22.39-4.1994 29.55-8.2094 27.78 1.9 55.61 1.9294 83.45 1.8094-2.41 1.95-16.401 0.9906-12.181 10.491 10.29-2.84 27.761-1.3809 31.711-11.561 12.46-0.98 24.87-3.2488 37.4-2.2188-1.58 15.33 0.6403 33.34-1.0297 47.03-0.13-7.35-14.161-17.3-14.341-5.4203 7.6 2.55 4.9597 14.63 13.73 14.05 0.18 17.32 0.4409 34.689-0.1891 52.009-4.91 2.57-7.0003-9.1391-13.07-4.7391-3.69 8.01 6.2803 11.89 12.22 13.32 0.03 15.4 0.9994 30.899-0.6906 46.259-4.82-4.26-5.2106-15.761-13.541-12.591-2.48 9.88 6.59 18.15 13.2 24.25 1.54 16.47-1.5894 33 0.2406 49.42-5.75 0.08-6.7806-13.609-14.391-9.6594-1.98 7.47 5.8503 20.029 14.47 17.739-0.23 15.32 0.1 30.681-0.35 45.981-1.02-6.61-15.839-17.141-15.459-5.0906 5.54 4.25 8.67 11.861 15.35 14.291 0.14 21.72 1.4094 43.44 1.5594 65.18-9.21 1.5-5.7603-15.58-15.67-11.22-2.39 11.09 8.48 18.44 15.3 23.77 0.25 17.67 0.4206 35.429-0.1594 53.109-0.86-4.13-3.1606-15.019-9.4906-9.0594 1.14 12.36 6.9 25.18 10.8 33.87-0.04 18.19 0.1103 36.379-0.08 54.589-10.52 2.28-13.52-13.299-22.32-11.159-3.77 12.23 12.381 18.26 21.981 18.68 0.95 20.43 1.3797 40.991 1.8797 61.491-5.98-3.62-7.3006-16.711-15.891-14.211-1.42 9.86 7.44 21.24 15.3 24.67 0.37 17.13-0.06 34.291 0.2797 51.441-5.23-0.97-2.6988-15.761-11.569-11.131-1.5 9.72 5.8188 21.52 12.219 26.8-0.02 18.14 1.0003 37.101-0.3797 54.791-5.35-5.1-9.4394-15.371-17.859-13.541-1.56 9.88 10.99 18.41 18.28 21.62-0.34 18.13 1.1197 36.221 1.2297 54.361-7.43 1.42-5.7994-14.701-14.509-10.061-2.96 9.33 5.7591 16.541 13.339 19.661 7.51 7.95-8.5 20.95 3.3 24.6 14.96 11.32 30.111 22.619 47.211 30.739 66.86 33.1 137.35 63.34 212.69 67.32 74.98 4.15 150.72 5.22 225.24-5.55 68.1-20.42 139.68-38.659 201.32-76.559 10.02-4.28 6.6991-15.37 6.7391-23.8 3.27-2.69 6.73-5.2612 9.3-8.6812 2.76-7.37-7.6894-6.74-10.059-2.2-2.13-7.91-1.9106-17.379-2.3906-25.819 7.82 0.56 6.9609-9.1609 10.311-13.961 3.4-10.74-10.72-6.1894-11.17 0.7906-0.81-10.64-3.0603-21.41-1.8203-32.07 7.08-10.79 11.45-24.51 9.8797-37.37-9.21-4.26-9.2191 9.16-12.039 14.5-1.77-19.67-3.8397-39.5-3.9797-59.23 8.2-5.27 6.1188-16.589 9.9688-24.509 1.16-5.71 6.3812-10.54 4.0312-16.72-7.57-2.97-10.151 7.3703-16.511 9.3203-1.87-10.31-2.0091-21.021-2.1891-31.411 3.21-6.73 9.0594-11.9 11.709-19.02 5.79-2.59 7.68-16.669-1.8-13.469-5.02 4.74-6.8906 11.719-10.991 17.119-2.22-12.99-2.1294-26.29-3.4594-39.4 6.51-7.07 15.359-23.939 14.209-37.159-10.83-5.65-8.91 10.181-15.45 13.391-2.14-16.63-3.0688-33.571-3.6188-50.331 10.32-3.55 12.95-17.729 22.8-22.719 3.59-1.53 2.5594-9.06-1.8906-8.1-10.75 3.47-14.069 15.259-21.709 22.409-1.7-17.15-3.1806-34.48-3.4906-51.75 8.1-4.72 20.86-10.56 20.43-21.1-9.28-1.53-13.75 9.4097-21.55 12.38-1.5-22.99-4.0994-45.999-4.5094-68.989 9.13-1.62 12.17-11.45 15.82-18.65 2.29-4.01 2.9197-12.26-4.5703-9.1-5.98 4.94-4.5406 17.929-12.591 19.589-0.97-26.88-5.0194-53.66-4.8094-80.55 10.16-3.18 13.42-14.14 18.83-22.17 2.42-3.09 2.8794-10.499-3.4406-7.7188-7.62 4.7-7.9288 18.66-16.619 21.5-1.74-18.17-3.08-36.401-3.95-54.611 1.73-9.15 15.959-16.93 15.289-28.62-8.87-2.67-11.05 9.1012-16.55 13.331 0.51-26.2-0.2191-52.401 0.3609-78.581 10.44 0.98 15.829-13.97 16.289-22.63-10.29-3.97-8.6394 13.79-16.609 14.08 0.28-18-0.1306-36.01 0.2594-54 6.45-5.45 17.81-9.7591 15.32-20.189-8.57-3.9-7.7094 10.15-15.559 9.3297 1.39-16.36-3.59-34.57 4.95-48.97 9.39-6.41 6.8194-18.92 8.6594-28.2-14.33-4.46-5.62 18.82-13.5 21.05 0.52-32.2-1.1194-64.649 0.8406-96.709 1.89-11.25 15.849-16.13 16.859-26.75-8.18-6.7-13.599 8.67-17.409 10.3 1.25-26.82-3.9509-55.201 2.3391-81.341 8.65 0.3 13.8-7.0497 20.72-11.08 1.9-3.48 3.24-11.659-3.7-9.0094-5.16 6.03-12.45 9.439-19.95 11.639 0.67-17.02-0.08-34.06 0.45-51.07 6.13-4.35 11.43-12.56 11.27-20.18-6.36-3.8-7.6806 5.1-11.641 6.2 0.88-10.49-1.02-23.599 0.8-32.359 21.29-3.95 24.14 24.919 44.9 22.039 2.36-8.4-7.93-11.609-12.3-16.639 25.87 0.9 51.231-5.6806 76.411-10.241 8.15 6.65 17.49 11.44 28.73 7.9703 4.6-11.23-15.72-6.3206-17.85-11.141 16.67-5.29 34.41-9.069 49.22-18.939 16.13 2.17 32.4 0.74968 48.4-2.0203 7.48 5.91 22.81 11.77 33.7 6.1797 5.31-1.32 16.22-0.14 12.8-9.15-6.85-2.49-15.411-0.27-21.531-2.2 20.81-4.19 40.85-11.37 60.87-18.2 11.37 5.15 24.85 10.15 36.87 5.7203 3.11-12.88-15.16-4.8906-20.02-12.791 1.73-3.26 5.6809-4.2788 8.8609-5.6188 33.22-4.77 57.909-36.061 93.909-26.631 4.5-13.59-15.87-3.2594-21.62-7.2594 19.41-12.11 40-24.46 54-42.8 16.37-10.09 35.99-11.19 52.88-21.17-0.47-14.47-19.14 0.40093-27.65 0.61093 7.01-10.44 13.49-21.311 20.5-31.711 13.45-1.53 26.3-9.8591 30.1-21.089-9.17-6.02-15.84 7.1497-23.85 9.5297 8.01-15.57 15.961-31.19 23.231-47.13 12.73-1.4 30.579-13.84 27.239-28.95-9.26-3.42-12.329 10.53-20.439 13.13 9.07-18.06 8.2097-40.32 21.23-55.73 2.71-7.2 5.4094-14.551 8.7594-20.991-6.2-11.97-9.3894 8.0806-15.859 9.8406 4.2-18.72 7.5197-37.651 9.7797-56.711 13.15-4.17 11.79-24.12 16.8-35.23-5.35-12.55-12.26 6.0803-13.08 11.57-1.74-21.46 7.2797-52.621-8.2703-72.691 1.02-5.84 1.9097-11.74 0.6297-17.62 13.21 0.23 8.3406-19.669 14.941-27.319-4.35-3.49-1.1497-17.001-8.7297-12.711-2.23 7.84-2.9412 16.171-6.5312 23.641-3.84-31.11-8.28-63.24-19.15-93.12 5.31-15.51 11.891-31.941 8.2312-49.291-8.59-2.83-5.3603 12.16-9.7203 15.62-7.56-36.23-25.43-69.86-47.3-99.43-0.01-10.72-2.27-21.739-5.8-31.659-8.34-4.02-6.6197 13.3-12.78 15.58-13.25-3.12-27.11-1.7106-40.52-0.79063 8.24-9.93 12.9-22.349 14.43-35.089 0.3-7.69 0.8694-19.721-8.6406-21.931zm3.1906 5.6703c6.18 13.56 0.38 39.051-13.15 50.241-12.28 0.34-25.1 5.2297-37.05 2.8297 1.19-5.46-12.601-23.099-1.2406-15.559 7.92-6.35 8.3409-20.27 11.561-30.22 6.53 7.26 12.3 15.28 19.52 21.92 11.88-4.42 14.459-19.151 20.359-29.211zm-71.18 0.11094c2.51 9.65-0.9003 21.949 8.9297 28.109 10.48 5.57-6.91 8.7203-0.15 18.97-22.1-5.88-19.64-32.15-8.7797-47.08zm-602.2 44.11c11.78 6.62 30.921 14.34 31.631 28.97 11.2 0.9 12.91 16.74 10.18 25.12-6.68 2.19 1.1991 7.96 4.9391 5.15 19.48-8.54 35.521-23.301 50.591-37.991 1.84 26.51-8.3197 55.17-27.88 73.68-10.23 8.9-36.251 15.72-37.591-3.6-4.67-2.98-1.6894-15.35-8.6094-12.38-1.83 6.95 1.5003 13.479 4.2703 19.609-13.03-0.8-32.461-6.38-47.831-10.5-3.76-4.13 4.4409-21.449-7.5891-16.259 4.08 12.46-3.72 18.02-13.95 12.17-17.49-22.54-17.061-54.881-8.4406-80.811 4.21 17.64 11.35 37.25 26.73 47.72 22.66-0.17 29.19-33.37 23.55-50.88zm-26.119 3.2594c6.34 10.9 11.15 23.99 17.78 34.85-7.22 20.89-35.061-1.4391-25.911-15.839 2.87-6.27 4.6912-13.011 8.1312-19.011zm705.2 4.8219c5.6412 0.21731 10.27 7.2469 1.2704 6.9891-3.88 11.4 14.42 8.0603 17.67 17.02 2.74 8.35 6.4509 17.119 6.3609 25.959-19.35-3.35-4.6703 15.391 2.4297 20.591 2.73 20.2-0.3409 41.919-3.1609 62.469-6.5 1.39-10.07-10.159-16.15-5.9594-3.73 10.01 8.8806 16.35 13.191 23.18-3.61 16.76-7.17 33.681-12.65 49.941-4.04-5.48-7.67-16.37-16.55-12.42-2.09 5.84 3.2397 10.52 5.2797 15.47 3.32 5.37-0.4897 13.039 4.9703 17.209-8.96 26-18.78 52.071-31.25 76.541-10.33 0.1-6.4806-19.08-16.141-15.02-2.97 10.29 4.05 22.96 10.1 28.9-11.35 22.55-23.349 44.81-36.769 66.2-6.73-1.94-5.0203-17.81-15.17-12.23-1.61 9.88 7.2494 19.28 4.3094 29.45-9.03 13.25-17.649 26.839-27.459 39.539-11.26 3.53-4.22-16.579-15.2-11.139-0.08 9.44-2.1206 21.02 1.1094 29.38-20.23 24.37-40.899 48.61-64.639 69.63-11.68-0.54-4.9212-22.559-17.331-18.859 0.75 9.3-1.2488 23.629 6.2812 29.339-18.73 15.8-37.961 31.121-58.811 44.041-3.1-5.4 7.6303-1.6106 4.0203-8.6906-4.5-5.36-2.87-21.169-13.5-16.769-1.64 10.1 2.1597 19.88 2.2297 30.08-22.25 12.98-45.379 24.78-69.889 32.9-5.13-3.94 1.2088-24.02-10.281-19.9-0.65 8.42-2.4797 16.759-5.1797 24.739-16.09 3.97-32.599 9.1803-49.339 8.7203-8.31 0.05-8.9506-6.8497-8.5906-13.48-10.84-4.2-5.4103 12.421-12.17 16.291-10.05 0.06-20.23 0.86876-30.12-1.2812-2.97-18.91-3.0197-35.719 1.8703-53.889 3.7399-7.5633-6.8124-8.8841-7.8438-3.6297-2.3637-14.247-3.2521-29.472-5.2859-44.011 69.14 20.96 147.28 10.81 206.12-32.1 32.11-22.94 58.98-52.459 81.85-84.389 8.01 0.61 2.0197-8.6709 7.1297-11.761 28.83-43.8 47.57-91.14 62.63-141.25 5.74-0.53 3.8203-5.7203 2.5203-9.6203 6.11-23.01 10.02-46.599 13.68-70.059 6.29-0.11 7.88-10.21 1.45-11.6 3.12-47.48 5.6906-100.85-22.209-142.25 16.34-13.03 38.57-11.18 56.72-17.32 15.86-2.32 31.78-4.3003 47.8-5.2203 1.4612-1.3169 3.1189-1.789 4.6984-1.7281zm14.911 0.99844c17.27 2.46 29.56 18.94 38.78 34.2 15.79 27.84 34.22 57.41 33.87 90.45 0.99 5.56-6.4306 5.9309-6.8906 10.261 11.96 12.52 14.06 30.779 18.55 46.739 5.82 31.85 13.471 64.74 8.4906 97.12 1.64 0.87 3.36 1.6094 5 2.5594-1.19 19.88-2.5397 40.7-10.78 59.1-8.22-3.77-4.6597-20.429-15.73-16.789-1.32 13.14 4.4697 25.319 8.1297 37.609-9.21 23.27-23.201 44.39-37.091 65.12-3.83-5.86 5.7997-25.819-6.8203-21.659-3.68 11.86-10.1 27.479-5.0797 38.159-15.67 18.58-30.4 38.29-48.12 54.92-4.42-3.81 3.1512-26.791-10.219-22.191-1.93 11.21 2.1097 23.47-1.4203 34.23-13.95 13.76-27.77 28.191-43.27 40.061-2.82-4 2.35-19.81-8.35-16.53-3.97 10.42 0.6406 26.279-10.859 33.319-18.4 14.52-36.881 29.071-56.291 42.211-1.25-4.67-1.42-9.5697-2.65-14.23-9.2-4.09-4.9703 6.7997-7.7203 11.23-2.85 17.57-21.39 22.76-33.85 32.22 3.03-0.89 6.1806-1.3903 9.3406-1.7203 1.49-1.04 3.2697-1.56 5.0297-2 10.81-11.44 27.86-12.97 36.83-25.23 19.21-13.58 37.68-28.161 56.05-42.841 5.59-4.27 14.141-5.3597 15.691-13.18 47.3-42.15 93.32-88.54 126.5-141.65 22.87-35.85 41.81-76.041 43.8-119.19 5.49 41.14-3.3906 85.621-10.741 127.24-1.93 5.46-0.7894 13.07-6.2094 16.52 7.9 4.04-2.4506 9.8788 3.6094 14.419-4.31 24.41-15.09 47.06-24.77 69.7-17.35 33.53-32.88 69.941-61.08 95.981-3.42 3.65-6.7194 0.72-8.4094-2.85-3.85 20.39-28.92 30.7-44.38 42.95-26.33 11.9-48.581 33.12-78.781 38.83-3.35-3.47-5.44-20.94-5.05-7.0297 4.58 12.33-11.679 13.64-19.339 18.08-37.32 15.04-76.94 25.51-117.18 28.1-10.56 1.74-19.991-3.0803-29.611-6.2203 1.58 2.78 7.0303 4.26 6.3203 7.75-16.41 7.64-33.89 14.84-52 16.02-32.35 9.81-74.08 21.869-108.2 7.139-10.4 0-3.5903-14.629-5.1203-21.039 6.55-1.73 14.871-19.161 2.6609-16.241-2.17 7.29-3.4909 2.4306-3.1109-3.1094 71.56 14.9 143.12-12.38 207.06-42.62-3.09 0.11-5.98 0.14969-9-0.0703-0.41 0.08-1.2203 0.24031-1.6203 0.32031-8.47 4.85-17.74 8.9906-27.12 11.841 0.23-3.17 1.4794-6.1409 2.8594-8.9609-3.05 0.25-5.8288 0.37062-8.7688 0.39062-0.35 0.21-1.05 0.60938-1.4 0.80938-0.1 4.92-4.1509 9.1203-6.1609 13.57-18.28 7.35-37.229 13.099-56.439 17.459 2.08-6.77 13.769-7.9488 10.289-16.469-13.3 0.89-22.289 17.22-32.989 20.88-15.7 2.12-31.481 4.36-47.361 3.45 6.75-1.41 19.51-4.2206 16.45-14.441-15.31 1.24-28.799 17.401-45.139 9.9109-0.71-9.99-0.6006-20.03-0.3406-30.02 1.45-9.67 11.31-16.581 9.45-26.911-8.09-4.4-6.55 6.5209-10.65 8.5109-1.54-11.28-2.5797-22.69-3.8297-34.03 31.16 4.29 60.16-0.79124 90.98-8.0812 6.49-3.27 14.79 1.0909 19.67-5.5391 93.1-30.91 168.56-99.67 227.58-176.12 55.03-72.35 98.09-154.36 124.95-241.08 18.22-64.82 32.52-137.95 2-201.34zm-635.69 1.5297c4.15 4.77 5.9006 15.41 6.9906 23.22 4.09 12.46-10.84 17.271-19.35 21.461 1.35-8.57 0.42-17.581-4.05-25.111 7.44-4.67 12.309-11.94 16.409-19.57zm505.66 23.839c4.097-0.16403 6.7797 6.0891 7.8016 9.8016-4.14-0.8-13.371-5.1994-10.591 3.3406 3.01 7.84 14.001 6.5191 18.561 12.839 2.84 8.61 5.3391 17.49 6.1391 26.58-4.41 1.47-4.1494-8.7494-9.9594-4.5594-5.14 9.83 3.3194 20.739 12.359 24.559 2.72 20.64 2.2206 41.871-0.2594 62.511-4.07-3.83-6.32-12.181-13.5-8.6609-2.72 8.96 10.269 13.66 6.9391 23.55 1.26 0.45 3.79 1.3509 5.05 1.8109-2.51 20.02-6.3391 39.94-11.339 59.48-13.32 3.88-3.94-23.729-16.9-18.759-1.46 12.72 3.5491 26.399 12.239 35.669-5.08 22.41-14.009 43.781-21.859 65.331-8.86-1.61-7.02-20.7-18.3-16.92-2.99 13.18 9.55 23.92 9.1 36.77-8.97 20.77-20.251 40.7-32.741 59.53-1.1-8.06-4.6788-19.541-15.319-14.391-1.48 10.58 4.1191 20.971 3.6391 31.691-11.3 15.8-24.159 30.419-37.489 44.509-4.91-3.54-2.4509-18-12.111-15.83-7.93 8.13-0.1297 22.06-5.1297 30.95-10.17 9.45-21.841 17.259-33.591 24.559-4.61-4.64-3.4197-20.199-13.33-15.959-1.33 8.36-0.3891 17.55-3.4391 25.47-16.63 7.76-33.87 14.88-52.02 18.07 1.71-7.35 2.8794-15.101 1.5594-22.711-11.64-4.09-5.2891 10.19-9.2891 15.87-8.94 13.98-27.501 12.311-44.091 12.941 0.32-8.26 1.6394-16.621 0.3594-24.841-15.44-3.43 0.5906 22.929-16.159 23.559-14.19-0.86-28.03-4.3988-41.97-6.9188 3.14-6.49 13.1-12.78 9.8703-21.4-12.62-3.16-12.081 14.57-21.491 18.43-2.87-14.3-4.0791-29.47 1.1609-43.17 1.9-7.48-10.971 1.1-7.4906-7.7 1.78-5.71-7.0797-20.611 3.3203-19.191 50.81 10.93 102.65-6.7891 149.91-24.089 30.87-20.98 55.101-50.63 76.181-81 8.16-1.41 2.4991-11.65 8.5391-16.37 19.09-54.47 17.31-113.87 18.15-170.81-8.38-13.18 3.2297-26.881 9.4297-38.641 24.65-34.89 49.3-74.17 87.22-95.78 0.2856-0.07062 0.5659-0.11094 0.839-0.12187zm-620.79 51.883c13.914-0.20959 23.879 12.24 38.172 12.139 5.26 10.71 14.249 18.48 21.459 27.78 25.67 42.2 33.271 91.68 45.911 138.07 39.12 187.72 58.119 378.8 76.539 569.45 23.51 268.95 41.19 541.89 47.77 813.17 2.43 93.76 4.8203 187.75-0.1297 281.48-1.27 27.03-2.8597 54.249-8.6797 80.759-0.76 1.63 2.3591 0.3806 2.2891 1.9906-21.18 6.25-42.039 15.58-64.159 17.48-0.7-10.28-1.7097-1.5906-4.2797 0.4094-9.59 10.87-27.42 9.5706-40.97 12.491-69.9 7.45-140.43 7.11-210.52 3.05-4.19-0.93-14.02 0.9294-11.83-6.3406-1.26-10.2 17.34-8.2894 12.8-20.609-6.99-3.66-11.671 6.9997-18.141 9.7297-0.37-10.21-1.9197-20.439-1.5297-30.639 4.93-5.69 14.081-12.061 11.311-20.831-6.17-3.28-8.0803 4.6103-11.87 7.5203-9.37-20.68 13.28-27.05 12.22-46.73-8.96-6.63-8.0009 12.219-13.811 13.209 3.18-16.12-6.61-41.859 5.6-51.239 0.3-11.51 11.22-20.39 9.9-31.85-10.58-2.41-10.29 14.379-15.77 19.239 0.85-17.96-0.2591-35.949 0.6609-53.889 5.18-6.68 14.15-7.97 19.72-13.95 2.66-3.61 5.3491-14.22-3.1109-10.45-3.58 7.41-11.18 11.02-18.25 13.27 0.76-16.3-0.2394-32.61 0.6406-48.87 8.67-6.49 16.53-13.781 24.22-21.311 5.65-0.82 6.3697-11.27-1.1703-8.5-8.57 3.81-14.46 14.061-22.68 17.641 4.55-17.86-8.57-42.179 7.55-55.009-0.24-7.23 11.529-9.5506 7.1594-18.141-7.49-2.95-10.291 8.4797-14.791 11.03 0.96-15.81-0.2494-31.679 0.6406-47.439 7.37-3.61 28.551-6.9706 27.091-19.691-11.12-3.98-17.461 13.811-27.181 9.9406-0.85-13.57 0.7506-27.101 1.1906-40.631 8.89-2.98 11.689-13.26 18.659-18.68 3.75-2.91 8.0406-7.3097 5.3906-12.48-11.66-1.5-15.491 16.609-24.641 20.009 0.66-14.4-0.4288-28.869 0.5312-43.209 6.82-1.11 6.8491-10.24 12.089-14.02 2.09-6.03 13.36-4.3891 9.0297-12.839-10-3.16-15.57 6.37-19.93 13.45-1.72-7.55-0.08-16.521-0.35-24.561 5.67-4.88 20.5-8.1197 17.28-18.83-7.67-3.34-10.12 9.57-17.4 8.1-0.02-14.66-0.6388-29.39 1.3812-43.93 9.17-2.87 12.949-15.731 15.359-23.461-9.22-5.55-11.89 8.2312-15.12 13.831-1.79-17.82-0.2303-36.56 0.5797-54.7 9.65-5.6 15.03-19.711 14.22-30.891-10.91-3.46-7.6803 16.05-14.42 18.05-0.11-16.37-0.4691-32.8 1.1609-49.1 5.56-7.39 19.169-12.631 17.259-23.891-8.24-2.98-10.759 9.8512-17.839 10.981-3.56-25.32 8.5294-42.09 14.009-65.42-7.55-5.55-9.7606 4.9197-11.991 9.9297-1.55-15.94 1.3906-32.641 0.4406-48.891 5.17-8.6 22.66-11.699 23.65-22.019-9.89-6.33-15.47 7.8488-23.08 10.419 0.78-15.44-0.02-30.91 0.5203-46.33 8.4-4.49 12.429-15.45 19.569-22.22 1.25-15.89-16 1.7903-18.05 9.1703-2.65-25.16-1.8194-52.269 15.591-72.039 5.09-1.48 5.6603-11.81-1.6297-8.95-8.56 1.94-10.171 12.239-13.991 17.459 3.92-20.45-4.1891-46.3 9.3109-60.78 3.41-9.32 15.279-14.981 14.469-24.391-11.34-2.86-14.29 13.801-21.68 17.111 1.42-17.01-0.2094-34.36 2.6906-51.15 8.44-2.73 12.579-11.37 20.439-15.12-1.31-13.06-16.179-0.09-20.359 5.6-1.78-8.81 0.1203-19.23 0.7703-28.53 8.12 1.01 5.13-8.8013 9.8-12.381 4.61-3.04 9.6-7.1194 7.35-13.509-7.97-1.79-12.251 7.3103-16.911 12.47-1.81-11.73 0.66-24.571 0.65-36.691 6.54-4.72 21.36-10.189 19.27-20.689-8.08-2.31-11.4 8.6797-18.87 10.08 0.64-15.92 0.5109-33.471 2.5109-48.441 8.85 0.33 23.449-19.669 9.5594-19.159-4.45 2.54-4.73 10.52-10.4 11.12 1.21-12.96 0.4306-25.99 1.7906-38.92 2.69-8.57 15.72-13.39 12.37-23.73-7.55-4.55-8.2003 8.3794-12.62 8.8094 2.98-13.7-3.4509-31.59 6.6891-42.03 4.32-7.51 14.85-13.781 11.92-23.761-9.62-3.69-9.7503 13.48-16.42 14.9 0.45-8.6 1.0406-17.209 1.3406-25.809 7.71-3.45 12.72-14.091 13.1-22.141-6.6-3.47-9.1003 5.1409-11.97 9.4609-2.22-17.64-0.4797-33.171 13.77-44.161 4.26-11.47-10.65-6.5591-11.98 0.51093 2.62-19.09-5.02-44.521 7.45-58.761 2.73-6.64 11.97-10.8 9.7797-19.15-8.63-3.41-10.569 8.9603-15.709 10.92 1.36-14.89 2.3197-29.83 3.5797-44.73 8.6-5.87 19.389-15.319 19.089-26.059-9.54-2.14-12.209 9.9988-17.809 15.569-2.12-12.94 0.4406-26.769 0.5406-40.019 6.57-5.21 25.729-10.33 25.139-21.65-10.57-3.02-15.39 10.359-24.68 12.289 4.26-11.85-5.54-31.189 7.2-38.109 0.69-6.16 9.91-8.2503 6.65-15.02-3.97-2.58-7.1706 1.3394-10.141 3.3094-2.77-17.87 3.4106-32.65 18.541-42.65-0.5-12.07-12.51-1.3197-17.05 2.5703 1.42-10.41 1.2797-20.96 2.5797-31.37 8.48-1.25 12.56-9.9891 20.48-13.089-0.87-12.18-16.069-1.2303-19.369 4.1297-1.03-13.54 2.2594-31.18 2.7094-46.23 7.45-4.24 17.12-8.4106 23.58-14.991-0.87-14.06-17.77 5.4603-22.77 4.7203 1.29-11.82 2.1209-23.689 3.3609-35.509 8.54-0.89 17.59-9.0503 16.02-17.92-8.65-4.5-8.2209 9.6097-15.211 9.3797 1.71-10.54 1.1897-21.56 3.9297-31.9 8.92-3.84 18.871-12.29 18.191-22.67-10.44-4.11-8.9197 12.101-17.68 13.261 3.74-10.77-1.5297-28.891 10.47-33.641 3.84-8.1 10.83-16.2 9.3297-25.48-10.05-3.99-7.3003 11.119-12.62 14.189 1.49-10.34 3.5903-20.74 7.6703-30.4 9.94-2.68 20.26-3.8594 30.42-5.5094-5.04 9.69 5.0794-3.2994 6.3594 3.9406 9.62 35.05 11.59 71.679 17.15 106.74 24.57 217.24 38.641 435.58 52.391 653.64 12.74 218.97 23.19 438.12 27.6 657.37 1.3 117.14 4.7888 234.68-2.5312 351.66-0.61 44.6-4.5588 89.371-12.269 133.34-3.7 14.9-6.08 33.889-17.85 43.839-5.25 9.89 4.91 1.6997 8.7-1.2203 5.62-8.94 25.16-5.4691 34.25-11.839 2.05-16.18-22.73 1.82-29.17 0.15 6.07-15.92 8.0503-32.941 11.47-49.491 4.89-5.95 23.21-4.9494 20.35-16.509-7.68-2.93-12.181 6.1503-19.231 6.4203 1.75-15.91 3.7209-31.811 4.9109-47.761 4.25-6.49 22.01-5.8003 19.33-16.67-7.21-3.03-12.04 5.07-18.5 5.05 0.4-12.83 2.2206-25.599 1.9906-38.439 0.96-12.11 0.9094-24.26 1.6094-36.35 9.48 0 10.821-11.59 19.041-14.2 4.98-1.64 5.33-12.291-1.9-9.2406-7.75 1.11-10.431 12.161-16.681 13.311 0.69-18.27 1.1509-36.55 1.4109-54.82 6.1-6.06 20.67-8.03 20.4-17.6-8.28-5.89-13.061 5.1591-20.491 6.3391 0.89-8.75 0.5597-17.519 0.8797-26.239 7.31-3.75 18.851-12.4 16.281-22.67-9.16-3.8-10.2 11.821-16.52 12.941 0.26-14.05-0.2397-28.121 0.3203-42.131 9.16-1.08 11.549-11.5 17.819-16.63 3.89-2.37 2.7512-11.3-3.3188-8.7797-6.3 4.33-9.32 11.501-14.1 17.191-1.47-16.77-0.2712-34.601-0.5312-51.741 9.93 0.56 8.6403-10.311 15.62-13.841 1.29-4.79 8.73-6.56 5.5-12.1-10.84-3.88-16.029 11.541-20.239 17.381-1.7-18.95-0.9712-41.39-1.9312-61.67 6.37-7.57 20.481-15.89 20.431-27.67-9.58-2.03-14.48 11.619-20.72 14.809 0.68-16.94-1.8803-33.829-0.4703-50.759 10.7 0.12 20.831-11.211 19.941-21.141-11.65-5.84-9.6906 14.481-19.941 12.261-0.21-21.45-5.5294-45.68 2.2406-64.18 2.01-7.84 12.97-12.261 10.7-20.991-7.65-3.55-10.491 6.1494-14.661 10.559-2.4-19.7-1.3494-40.03-2.6094-59.93 6.3-13.49 17.06-25.179 23.87-38.759 2.26-5.52-8.0412-6.6106-9.0312-1.6906-4.23 9.64-13.65 16.7-15.3 27.42-1.17-18.25-0.8688-36.741-2.0688-55.041 8.71-3.05 15.989-10.289 21.259-17.769 2.72-2.99 2.02-10.941-4.05-8.2312-6.35 5.07-9.71 14.021-17.9 16.461 3.97-21.62-11.03-48.671 9.15-63.811 5.15-2.14 11.991-4.8191 8.6406-12.239-9.09-2.14-14.06 9.7091-20.75 11.989 0.97-12.84-0.4406-25.59-0.7406-38.38 6.97-6.93 21.48-20.92 21.43-34.58-12.71-1.97-11.41 19.43-22.83 22.22 1.03-15.8-1.1106-31.64-1.2906-47.37 7.75-0.87 10.42-9.89 17.65-12.35 4.83-2.11 13.76-16.14 2.7203-15.05-6.13 7.31-13.2 13.61-21 19.08 3.07-13.71-10.45-40.139 7.9797-42.259 5.56-6.49 16.441-13.03 12.731-23.22-10.76-2.42-11.771 18.791-23.491 16.841-0.06-19.46-0.9794-38.931-2.6094-58.291 10.6-6.08 19.019-17.73 25.419-29.1 2.04-3.64-0.9394-10.16-5.7094-6.3797-6.05 9.06-11.95 18.31-19.38 26.37-2.9-28.35-6.4903-53.01 8.0297-76.87-0.03-11.93-13.06-2.17-11.98 5.6-2.02-12.6-2.3697-27.781-2.4797-41.211 6.57-3.37 11.229-9.0787 16.409-14.119 4.57-1.24 11.68-1.78 7.8703-8.95-10.63-2.18-18.11 6.9594-24.97 13.459-1.34-12.74-2.6-25.79-2.05-38.5 14.62-1.32 21.55-19.271 20.97-31.891-13.65-2.16-7.11 23.511-21.9 24.591-1.84-22.87-2.9406-45.82-4.7406-68.7 9.37 3.95 6.9797-8.99 14.33-10.55-1.07-8.03 10.841-9.3897 7.3312-17.33-11.89 0.2-19.51 17.12-22.52 26.05 2.38-24.39-8.73-50.37 3.1-73.3 2.22-4.35 7.9497-8.12 5.3797-13.75-6.5-2.6-10.39 4.65-12.95 9.45-3.03-23.67-6.5994-50.24 13.291-68.05-0.6-16.46-14.04 3.1094-17.15 10.209-1-15.87-2.32-31.949-3.45-47.889 6.27-4.02 10.359-11.231 16.009-16.381 3.58-2.67 2.6997-11.549-3.5703-8.7594-4.63 4.66-7.9491 10.539-12.989 14.809-3.52-16.16-0.4106-31.94-2.3906-47.9-6.06-5.84 0.6794-31.069-7.5406-44.059 2.12-34.86-4.8994-69.92-6.6094-104.87 6.39-7.06 15.57-18.469 17.48-28.889-10.47-5.5-12.83 11.85-18.65 17.55-1.63-18.8-3.4903-37.591-5.4703-56.361-3.39-10.29 8.8506-12.999 13.341-20.709 2.12-5.69 13.86-3.79 9.5703-12.25-12.19-3.5-17.43 8.98-24.48 15.45-2.85-25.99-5.62-51.98-8.75-77.92-0.02-10.44 17.22-14.76 12.23-26.3-8.68-4.2-8.1306 10.92-14.191 11.87-1.45-21.4-13.34-46.361 5.6203-63.461 1.53-14.88-13.159-1.3688-13.859 6.0812-3.23-8.09-4.45-17.091-6.7-25.581 2.9-1.0672 5.6109-1.5393 8.1876-1.5781zm21.662 3.7594c4.08 2.37 14.47-1 14.85 5.2-4.83-0.73-12-1-14.85-5.2zm23.659 5.6797c30.58 6.41 61.85 16.649 89.32 32.389 6.54 3.18 3.82 10.56-3 11.7 23.06-1.89 33.62 23.221 46.63 37.741 28.05 42.99 57.68 87.159 70.75 137.36-3.48 61.6 12.591 122.16 14.841 183.53-0.5 5.63-5.0406 16.57 3.4594 17.5 5.34 68.47 18.98 136.77 18.8 205.47 0.62 126.66 0.3706 257.03 0.1906 385.09 2.09 75.78-3.4912 151.9 4.7188 227.38 1.1 24.13 3.5703 48.18 4.5703 72.32 13.7 181.79 26.54 366.24 40.1 549.04 0.54 7.2-8.4397 9.7488-13.43 13.169-30.22 17.49-64.259 30.06-97.509 41.8-2.72-21.15 32.439-13.399 29.239-32.309-8.47 0.53-16.36 8.6694-25.53 11.209 1.9-10.96 2.4897-22.129 3.6297-33.119 6.96-5.85 10.29-14.861 16.8-20.991 3.62-9.79-6.1694-9.03-9.2594-2.6-1.49 3.14-3.4306 6.0597-5.5406 8.8297-0.54-5.82-2.2291-17.089 0.4609-22.009 0.17-17.55 1.3188-35.081 1.2188-52.611 4.57-5.54 18.371-7.9091 15.291-17.739-7.08-3.58-9.64 7.2894-15.7 7.0094 4.38-19.94-8.2806-48.79 15.409-59.48 6.21-0.69 11.111-15.341 1.4312-13.091-5.06 4.48-9.5509 10.57-16.111 12.67 2.02-26.2-1.11-52.329-0.45-78.509 2.06-8.89 13.34-14.551 21.87-19.861-1.79-12.76-16.22-0.6094-21.38 4.4906-2.69-22.57-1.2209-47.21-2.2609-70.53 10.01 0.67 17.41-6.9406 24.17-13.141 2.95-2.89 2.27-10.8-3.75-7.9-6.93 4.04-11.829 13.1-20.609 12.35-0.34-21.16-2.5609-42.789-1.2609-63.589 10.54-6.08 15.69-18.001 15.67-29.561-13.68-4.15-6.3603 17.93-17.92 19.4 1.98-22.2-0.9588-44.299-1.4688-66.409 4.79-5.89 16.099-9.7403 14.309-18.87-7.13-3.06-10.1 7.3506-15.82 7.9406 1.09-16.04 0.1109-32.051-0.4891-48.041 8.38-2.88 13.999-14.82 13.359-23.98-10.29-3.25-8.2706 10.99-13.841 15.7-1.64-24.17-3.5197-48.68-3.6297-73 6.45-7.93 9.3006-21.621 18.791-29.111-0.77-19.16-17.331 9.0112-19.361 12.431-2.5-21.5-2.37-43.511-4.3-65.131 5.74-6.07 4.5406-15.019 8.6906-21.859 1.67-4.52 3.3803-14.97-5.1297-11.05-1.27 3.91-1.5803 8.2094-4.1203 11.609-1.74-17.19-2.97-34.539-3.45-51.769 5.69-4.73 7.6594-13.16 11.809-19.55 2.53-3.57 3.9503-11.811-3.2797-10.061-4.8 4.31-5.8103 11.891-9.8703 16.241-1.64-23.9-2.0988-47.88-4.9188-71.68 2.18-0.33 6.11 1.9197 6.75-0.9203 1.8-13.74 8.6988-26.86 7.0188-40.98-2.86-1.44-6.8091-1.1309-6.9891 2.4391-0.04 11.13-4.7903 21.3-6.8703 32.07-2.67-37.74-5.9803-77.21-8.4203-115.55 15.67 1.06 8.5006-18.591 16.541-25.141 2.62-8.73-10.821-5.8797-10.411 0.5703-1.6 3.85 0.5703 17.321-7.2797 14.791-2.39-22.42-2.4097-44.1-3.0297-66.13 3.76-6.96 9.62-14.471 7.3-22.881-8.91-4.3-5.6303 7.971-10.62 10.561-0.72-9.81-2.0797-19.59-2.3797-29.42 4.96-3.53 11.93-8.9906 8.95-16.041-5.12-2.86-8.23 2.5206-10.1 6.2406-0.73-12.91-2.6397-25.75-3.2797-38.65 11.17-6.04-3.7797-28.801 9.8203-35.391 4.03-3.15 6.4594-9.3494 4.5594-14.259-9.17-2.13-12.951 12.46-18.291 15.1-0.15-23.08-9.2294-47.959 2.4406-69.359 3.29-14.95 12.359-25.95 13.209-41.05-6.57-5.48-9.6988 5.3397-9.9688 10.18-5.14 9.63-8.7203 22.049-11.72 31.339-3.39-22.35-4.56-45.949-8.05-68.709 10.51-2.32 21.68-19.49 24.63-30.88-14.02-5.58-14.621 18.33-25.241 24.57-2.33-27.12-6.73-54.061-9-81.161 8.54-5.04 11.66-15.379 13.7-24.439 2.63-4.06 5.1906-12.94-3.6094-10.45-5.5 7.83-3.9903 18.88-12.02 25.4 1.65-14.67-11.149-33.79 1.8406-44.07 2.11-9.61 12.6-17.05 10.07-27.48-10.6-1.63-11.57 18.889-18.17 22.769-2.55-22.38-6.4209-44.609-9.1109-66.959 5.24-6.39 16.461-11.529 12.281-21.809-8.02-3.92-7.8809 10.51-14.261 10.93-2.45-19.19-6.9503-38.161-8.7203-57.411 9.79 0.33 13.511-15.16 12.981-23.53-10.93-3.72-7.1406 15.041-15.541 16.211-4.99-21.77-1.4803-43.04-1.6703-65.2 5.43-1.77 5.5006-12.051-2.2594-8.0906-9.8 1.25-1.8003 14.92-5.7203 19.33-4.14-22.38-9.2497-44.559-14.53-66.689-3.43-14.23 14.92-22.801 12.73-36.631-9.77-1.74-12.421 14.09-17.191 19.02-5.93-21.54-12.679-42.879-20.739-63.709 3.28-8.45 5.9794-19.68 5.0094-29.28-10.99-4.44-5.0391 15.279-10.139 17.989-6.08-16.33-23.211-27.899-26.641-44.059zm-98.83 0.52969c-19.4 84.13-21.58 171.12-28.93 256.89-25.6 444.82-34.16 889.97-39.05 1335.5 0.88 116.48-4.7206 233.46 5.1094 349.61-0.28 8.85-23.58 0.2303-31.53-2.1797-3.19-1.23-0.08-21.039-3.4797-8.0594 0.78 10.11-9.9912 7.11-15.931 5.25-30.96-8.34-60.889-20.32-90.169-33.23 13.53-0.62 1.4388-22.321-1.7812-5.5312-4.89-9.63-7.6191-20.289-8.9891-30.919 4.55-6.18 16.27-9.4409 13.3-18.711-7.73-3.52-10.45 7.1203-15.53 9.0203-1.21-14.19-3.7403-28.24-4.7203-42.45-0.75-3.34 5.4591-0.4397 5.9891-3.0797 1.15-9.39 13.73-14.52 11.25-24.57-10.89-2.47-12.849 13.8-18.639 19.1-0.83-23.79-3.8397-47.49-4.6297-71.25 5.87-6.96 16.54-13.859 15.3-23.809-8.35-2.53-11.89 7.3488-15.75 12.519-0.91-15.11-2.2212-31.07-1.3812-46.45 6.79-3.44 16.671-8.8594 14.031-18.109-8.16-3.68-8.6512 8.8494-15.731 9.2094-0.13-28.32-5.9697-59.15 14.22-82.5-3.65-14.36-13.06 5.0112-16.2 9.4312 5-28.28-12.01-64.451 14.2-85.561 0.49-10.61-12.61-2.8803-14.32 2.9297-0.77-14.08-1.4691-31.019 0.5609-44.739 7.73-3.66 25.62-22.481 9.5297-22.191-4.45 3.21-7.08 8.3403-10.1 12.82-1.31-14.29-0.3503-30.681-0.2703-45.741 8.41-1.99 23.081-9.3994 22.191-20.659-8.69-0.63-13.94 10.54-23.22 11.95 1.51-14.7 0.42-29.481 0.85-44.191 9.01-3.4 11.489-18.289 21.559-23.709 5.1-1.22 6.8303-13.22-0.8797-10.48-7.19 6.17-14.049 12.82-19.259 20.8-1.51-12.06 0.1294-26.611-0.6406-39.591 12.38 5.82 12.701-10.2 20.541-14.57 4.42-1.14 4.8303-9.0294-2.0797-8.3094-8.49 2.28-9.6109 15.349-17.311 16.309 3.77-16.6-8.7003-43.81 8.0297-53.43 4.15-6.47 5.9303-14.05 11.27-19.38 2.54-14.97-12.4-0.9503-14.35 6.1297-2.18 13.1-6.0994 3.4306-3.7594-5.9594-0.09-22.62 1.8103-45.21 1.9703-67.83 7.73-3.18 20.08-12.65 18.3-23.8-9.69-2.39-11.471 12.089-18.861 15.189 1.6-12.74 1.0706-25.6 2.4406-38.35 2.59-7.61 12.61-10.959 12.18-19.939 2.18-4.94 11.49-7.1203 7.9203-13.87-12.36-4.54-14.28 11.099-18.5 18.609-1.72-19.27 0.7091-40.33 1.7391-60.32 8.06-6.48 17.791-10.529 25.991-16.709 3.07-2.99 2.7394-11.68-3.6906-8.95-5.71 6.81-14.259 10.75-22.019 14.55 2.73-22.71-2.26-48.08 8.75-68.15 3.55-4.57 8.2288-9.9306 6.9188-16.141-6.8-3.56-8.6288 3.43-10.669 7.8 0.07-13.5-2.9209-30.63 6.2391-42.35 4.49-1.85 8.7309-5.82 6.6609-11.35-5.35-4.44-6.63 4.6303-10.8 3.0203 0.57-13.98 1.41-28.02 2.7-41.9 7.44-4.98 14.339-10.79 17.669-19.43 4.68-3.1 10.011-14.78-0.6891-12.22-7.38 4.28-8.2197 16.741-16.43 19.841 1.87-22.78 3.0588-45.62 5.2188-68.37 5.93-5.2 18.95-10.111 17.12-19.991-7.75-3.36-10.779 5.7003-16.409 8.3703 1.15-13.15 2.2194-26.309 3.2594-39.459 5.77-4.54 12.65-9.53 18.9-14.35 4.07-2.49 4.7509-12.361-2.3891-10.091-4.31 3.86-7.78 11.63-14.65 10.67 0.67-17.74 2.7388-35.4 4.4688-53.05 3.25-12.17 23.031-18.051 25.141-31.341-11.48-5.86-14.881 11.361-23.791 14.591 1.95-14.29 2.7706-28.701 4.6906-42.991 10.44-3.85 21.26-14.13 21.82-25.3-9.59-2.51-12.89 13.401-20.43 14.741 1.83-22.86 4.4294-45.82 7.9094-68.45 7.21-4.71 24.79-8.0703 21.57-20.17-8.8-2.64-12.491 9.2209-20.511 10.261 2.11-17.95 3.8709-36.071 7.3109-53.791 9.75-1.76 16.9-11.149 26.68-13.609-3.25-14.28-17.729 1.8991-25.759 4.4891 2.6-16.97 4.1688-34.28 8.0688-50.95 8.16-1.06 14.07-8.2294 21.2-11.959 1.51-13.8-15.989 0.0191-20.439 3.8391 3.18-19.29 5.8703-38.76 10.17-57.8 8.03-3.48 20.199-10.429 18.259-20.519-8.59-3.47-10.191 7.83-16.591 10.15 2.54-15.09 5.66-30.101 8.85-45.061 8.02-3.96 13.54-13.21 22.3-17.22-0.44-12.74-15.139-1.3894-18.139 3.2906-0.23-11.6 4.9497-26.09 7.5297-38.57 8.24-3.15 25.29-5.7503 24.07-17.67-7.69-0.78-14.16 5.81-21.65 8.2 3.94-17 8.4203-33.999 13.57-50.659 11.68-0.66 17.769-13.89 28.569-17.62-2.85-16.12-20.64 7.56-25.8 7.7 6.39-20.42 13.1-40.82 21.55-60.48 12.46 3.69 15.051-12.76 25.091-14.25-1.55-13.92-15.411 0.82938-20.691 4.5094 5.75-15.83 14.441-30.359 23.061-44.769 3.19 7.49 11.579 1.3188 14.959-3.1312 2.77-4.65 13.27-4.1697 9.0797-11.48-7.58-3.28-12.769 3.5906-18.339 7.2906 10.18-23.48 35.94-26.93 58.05-30.82zm-158.14 38.873c-8.244 0.12701-3.8581 19.465-1.2391 22.936-16.78 17.08-31.391 36.451-41.741 58.091-5.34-13.1 7.4906-27.59 1.1406-40.88-11.51-2.08-2.2903 13.21-8.5203 18.63 0.49 8.36-5.5 23.521 5.75 26.241 0.99-1.01 1.9697-2.0312 2.9297-3.0812 16.86-28.49 35.94-57.929 66.07-73.889-6.16-3.3-14.29 8.38-21.35 10.85 0.02-6.1 0.5391-12.21-0.061-18.28-1.1391-0.43687-2.1269-0.63032-2.9797-0.61718zm-567.85 139.73c0.9079-0.008 1.815-0.004 2.7203 0.0141 34.42 3.87 59.669 35.39 80.559 61.23 2.48 8.53 19.15 19.369 3.75 24.009 1.87-2.96 2.6806-6.3494-1.8594-6.7094-32.18 84.58-23 179.98 8.3 263.45 31.51 82.81 86.77 160.09 164.23 204.81 50.78 29.37 111.46 42.831 169.68 33.781-0.06 8.81-0.9188 17.579-1.1688 26.389-4.07-1.14-5.8406-10.789-12.541-7.0594-1.7 7.62 6.21 13.26 12.25 16.13 0.55 12.94-0.1597 25.909 0.6703 38.859-4.27-1.17-7.4306-10.199-13.891-6.889-2.75 8.89 8.3 11.97 12.65 17.35-0.06 9.06-0.01 18.2-1.1594 27.23-4.68-10.1-22.101 9.5906-27.441-0.8594-5.98-3.69-10.82-13.39-18.97-10.77-4.09 8.63 10.56 9.7894 10.75 16.459-22.91 1.62-45.969 5.0309-68.919 1.6109-6.96-5.77-9.2206-22.06-19.241-22.4-5.98 8.35 5.5703 13.349 6.5203 20.709-6.97-0.64-14.001-1.85-20.611-4.2-15.68-4.41-40.199-3.88-44.219-22.6-5.39-5.35-5.97-14.041-11.45-19.091-7.12-2.21-4.6109 4.1513-4.8609 8.0813 3.4 5.4799 8.3497 11.05 9.2297 17.63-23.61-8.29-46.769-20.671-66.569-35.991 0.98-10.56-8.3209-18.439-8.3609-28.709-1.01-0.8-1.98-1.6297-2.9-2.4797-12.43 3.03 2.4606 20.35 2.1406 26.15-26.79-18.27-51.471-39.741-73.911-63.141 2.4-11.71-1.5197-22.971-2.3297-34.541-0.84-0.62-1.5291-1.3594-2.0891-2.2094-13.18 1.64 0.4097 21.54-2.4203 30.23-19.5-21.38-38.481-43.41-54.861-67.28 3.02-9.84-3.34-19.15-4.5-28.85-1.55-4.31-1.9991-14.28-9.5891-10.45-0.93 9.21 4.4597 17.479 5.4797 26.509-13.62-17.99-24.81-37.969-36.23-57.489 1.68-7.13 9.2394-36.511-6.3406-35.141-0.67 8.59 3.4903 17.08 1.1203 25.62-12.86-23.55-23.99-47.999-34.32-72.759 4-8.9 6.2306-25.651 4.4906-37.811-13.98-3.78-2.4597 19.791-9.5297 25.361-7.69-20.66-14.981-41.531-20.791-62.781 3.15-7.54 12.8-12.48 11.87-21.9 0.14-5.21 4.0791-16.83-5.8109-12.73-0.69 8.21-1.3488 20.1-9.3188 24.23-5.27-24.53-11.521-49.03-13.691-74.08 12.08-7.06 11.441-27.1 12.141-40.08-14.31-1.48-4.2409 21.99-13.761 29.68-2.43-24.76-4.4891-49.859-1.3891-74.639 7.02-1.16 6.9-10.25 12.6-13.57 3.33-4.85 15.129-4.9797 11.419-13.48-9.74-2.63-14.9 8.1991-22.98 10.739 1.62-11.19 3.1997-22.49 6.3797-33.35 9.55-2.83 18.141-11.77 15.661-22.33-8.86-4.17-7.3103 8.92-12.57 11.3 1.77-6.94 2.1597-16.4 10.88-18.13 27.59-10.191 56.954-22.804 85.1-23.064zm-97.13 28.334c-31.97 106.49-7.3497 220.4 33.27 321 46.2 111.28 117.33 214.99 215.36 286.64 49.34 35.49 107.26 61.111 167.84 67.141 27.9 2.6 56.15 1.3397 83.52-4.8203-0.12 1.92-0.3503 3.8506-0.7703 5.7406 7.08 4.45 13.329 10.58 21.939 12.1 0.95 20.36-1.3594 40.67-0.9094 61.03-5.69-0.43-20.31-12.67-18.43 0.3 11.46 6.82 25.379 7.5794 18.439 26.209-11.37 6.09-24.769 7.5503-37.289 10.07-9.72-0.07-14.82-16.691-26.02-12.741-3.41 8.31 8.3006 8.9003 11.341 14.47-36.73 2.83-74.161-0.1191-109.81-9.5391-0.98-9.31-11.53-20.161-21.5-17.941-3.22 9.12 10.79 8.8194 13.28 16.359-29.94-7.4-59.16-17.519-87.53-29.539-5.65-8.19-10.449-24.111-21.839-23.861-2.41 7.38 6.6488 10.961 8.1188 17.561-16.26-6.76-32.409-14.28-47.619-23.25-7.98-7.85-11.271-24.2-23.711-24.65-4.68 6.09 5.5406 8.9597 6.4406 14.83-14.99-7.33-28.83-17-42.92-25.87-1.55-12.52-10.31-23.47-15.85-34.67-15.67 0.2 5.0497 20.57 4.3797 26.87-16.05-10.72-31.25-22.609-46.68-34.159-4.43-9.15 9.8894-37.59-7.4906-35.05 0.12 9.52 1.0503 19.03 0.9203 28.58-11.55-7.26-21.159-17.611-31.739-26.291 1.01-11.51-2.9809-22.7-3.9609-34.08-14.09-2.96-2.63 21.18-4.1 26.12-13.98-11.46-26.23-24.85-38.5-38.07 3.12-10.52-1.4097-27.289 1.7203-40.059-16.87-2.9-3.4894 29.85-9.4594 31.28-14.3-15.64-28.14-31.96-40.07-49.45 7.1-5.23 1.2894-16.229 1.0094-23.709-0.75-4.66 2.8706-16.86-6.8094-12-1.31 9.88-0.1509 19.72 1.8891 29.38-17.23-21.04-30.88-45.701-44-69.741 8.84-9.25 6.6509-23.96 6.4609-35.72-14.12-3.23-2.4709 22.46-10.411 28.22-11.74-24.44-22.329-49.579-29.869-75.659 11.96-1.52 10.029-17.8 12.189-26.67-13.36-3.3-5.2503 16.03-14.72 19.82-5.25-26.63-18.319-55.5-5.2891-81.68 7.78-0.45 2.0294-9.5509 2.8594-14.061 6.04-21.71 11.4-43.67 18.9-64.93 2.34-3.81 3.3909 3.54 5.8109 4.55-1.7-7.01-3.6412-14.68 0.7688-21.18 20.25-42.49 44.541-83.071 69.891-122.64 7.66-14.46 16.91-27.05 32.97-32.65 2.51-1.51 5.2197-2.6391 7.9797-3.5891zm194.26 56.37c7.3494 0.29865 11.25 10.15 15.374 15.28 20.37 35.48 33.87 74.809 42.17 114.76-0.03 9.92-3.4806 16.639 1.5594 25.509 14.17 53.59 25.77 107.97 36.82 162.01 19.09 26.89 45.571 47.479 70.341 68.839 48.17 32.15 106.56 46.011 164.58 49.431 0.65 10.82-1.09 21.579-0.85 32.409-2.38 0.78-2.0406-9.0697-7.7906-4.3297-3.23 4.66 0.1712 15.229 7.7312 13.259-1.79 4.44 4.6997 18.19-3.7203 16.18-13.51-4.3-32.36 9.4313-41.95-4.0687-8.05-3.55-7.2509-18.87-17.761-16.02-3.01 8.63 7.5903 13.759 8.8703 20.659-18.11-1.29-36.3-4.4397-53.52-10.13-2.34-5.4-5.9791-9.9106-9.6891-14.391-3.17-5.44-1.6109-16.809-11.711-13.369 0.42 8.42 3.4103 16.919 8.2703 23.859-19.81-7.13-38.71-16.64-56.63-27.62-1.86-9.44-4.5203-19.059-7.9703-28.059-12.97-2.73-0.9703 16.819-2.6703 20.859-16.16-11.13-31.369-23.91-45.209-37.77 1.51-11.8 0.6494-23.639-1.7406-35.239-14.56-1.53-1.3897 20.36-5.0297 28.82-11.86-16.57-34.08-29.47-31.42-52.3-2.88-5.79 3.7-21.921-7.75-17.431-1.57 6.04 1.57 14.321-1.1 19.511-10.01-15.19-19.64-30.731-27.73-47.041 2.31-9.79 2.5903-20.83 0.02-30.73-12.6-3.74-2.7706 14.02-6.0906 18.82-12.26-25.64-22.009-52.53-29.309-79.98 7.5-9.92 6.3003-24.631 5.6203-36.741-13.99-3.7-2.2503 16.909-8.7203 22.859-5.38-19.11-7.2594-39.069-9.6094-58.739-2.68-15.37 9.5491-28.93 8.0391-43.87-7.2-4.05-6.1203 4.24-8.7703 7.7-1.74-17.03 1.2409-35.189 4.1109-52.359 7.55-6.95 11.5-17.211 19.05-24.441 2.03-3.21 2.8294-13.161-4.3406-10.391-3.03 5.27-6.4597 10.35-10.63 14.8 3.72-10.71 2.7194-28.469 16.759-30.319 0.8381-0.18937 1.6366-0.26058 2.3968-0.22968zm-342.03 234.92c20.45 121.46 93.331 228.02 181.79 310.95 89.61 82.37 196.25 146.69 314.3 177.67 55.35 12.75 115.24 19.63 170.01 1.2297 2.11 4.75 0.6509 12.571 1.1609 18.711-4.34-1.77-8.5106-6.71-13.591-4.2-1.57 6.92 7.47 11.49 13.1 14 0.43 9.05-0.3897 18.13-0.8797 27.18-7.03 0.48-12.001-7.4806-19.311-5.2406-3.44 11.82 15.53 10.141 19.25 14.261-59.4 8.9-120.79 6.2088-180.02 0.4688-28.19-4.24-61.86-4.4597-83.42-25.18-0.33-3.39-0.6397-6.6594-1.3297-9.9594-3.09 2.9-1.9406 10.74-8.0406 11.1-18.2 1.68-36.25-4.7497-53.2-10.88-54.39-20.2-106.77-45.611-156.73-74.911 3.18-12.04-4.3397 2.63-9.8797-4.7-19.99-15.69-38.301-33.54-55.491-52.22-18.61-17.84-35.93-37.739-52.72-57.539-13.19-14.77-25.91-30.85-30.4-50.6-19.58-69.58-36.69-140.24-46.57-211.83 0.97-22.85 5.8203-47.651 11.97-68.311zm538.66 46.28c-7.56 16.42 5.2997 42.19 24.78 41.82-5.68 9.28-32.321 25.05-38.941 6.0297-4.48-7.96-10.229-16.029-11.339-25.219 2.98-9.32 10.269-18.321 19.639-21.741 1.46-0.22 4.3909-0.67062 5.8609-0.89062zm1025.1 2.1656c-3.0071 0.10654-7.214 6.4828-8.7578 11.695 3.7-1.15 7.49-1.9309 11.3-2.9609l0.7391-0.55c-0.105-6.0562-1.477-8.2483-3.2813-8.1844zm-1061.4 4.4047c7.02 19.42 12.731 41.64 30.041 54.5 23.24 0.08 40.62-19.95 49.42-39.75 11.44 11.48 18.169 27.22 21.669 42.85 2.32 7.85-6.9091 17.24 3.2609 22.63 19.53 7.01 40.449-4.2791 54.539-17.439 2.75 30.37-29.899 49.239-53.689 60.739-10.31 6.39-7.4709-16.96-18.911-11.1-2.34 5.8 4.3506 9.5203 4.7406 14.97-13.18-2.79-25.751-8.029-38.541-12.189-7.22-3.62-3.0397-19.17-13.58-17-5.95 3.06 6.9703 15.2-4.7797 11.33-17.95-7.72-23.32-28.07-33.1-43.08-8.2-20.69-14.45-46.671-1.0703-66.461zm135.26 22.38c12.25 8.7 9.3997 39.021-1.3703 51.741-8.33 4.22-26.921 9.9197-30.141-3.4703 3.02-8.15 0.23-16.32-0.8-24.35 12.11-5.67 24.591-12.7 32.311-23.92zm845.71 9.1469c-1.4212 0.0512-2.4378 0.70344-2.4578 2.9734 2.43-0.49 4.8788-0.94907 7.3188-1.4891l0.02-0.85c-1.635-0.135-3.46-0.68562-4.8813-0.63437zm-970.59 60.673c10.16 6.48 1.78 11.21 0 0zm79.273 37.517c7.4579-0.2916 2.3313 4.7453-1.6625 0.1328 0.6131-0.0713 1.1653-0.11336 1.6625-0.1328zm75.886 191.34c2.5275-0.694 2.1503 19.597-0.4688 13.172-6.32-0.55-11-7.7191-17.17-9.2891 5.63-0.7 11.081-2.7906 16.761-2.9406 0.3244-0.5738 0.6167-0.8704 0.8782-0.9422zm468.42 886.3c-8.39 0.29-20.441 6.66-23.561 14.55-0.4 5.82 7.1397 3.1597 10.03 0.9297 4.44-5.46 16.001-6.6997 13.531-15.48z" fill-opacity=".93333" fill="#092909"/>
<g>
<path id="path6" d="m4994.6 17.53c-5.9 10.06-8.4794 24.791-20.359 29.211-7.22-6.64-12.99-14.66-19.52-21.92-3.22 9.95-3.6409 23.87-11.561 30.22-11.36-7.54 2.4306 10.099 1.2406 15.559 11.95 2.4 24.77-2.4897 37.05-2.8297 13.53-11.19 19.33-36.681 13.15-50.241zm-71.18 0.11094c-10.86 14.93-13.32 41.2 8.7797 47.08-6.76-10.25 10.63-13.4 0.15-18.97-9.83-6.16-6.4197-18.459-8.9297-28.109zm-602.2 44.109c5.64 17.51-0.89 50.71-23.55 50.88-15.38-10.47-22.52-30.08-26.73-47.72-8.62 25.93-9.0494 58.271 8.4406 80.811 10.23 5.85 18.03 0.28969 13.95-12.17 12.03-5.19 3.8291 12.129 7.5891 16.259 15.37 4.12 34.801 9.7 47.831 10.5-2.77-6.13-6.1003-12.659-4.2703-19.609 6.92-2.97 3.9394 9.3997 8.6094 12.38 1.34 19.32 27.361 12.5 37.591 3.6 19.56-18.51 29.72-47.17 27.88-73.68-15.07 14.69-31.111 29.451-50.591 37.991-3.74 2.81-11.619-2.96-4.9391-5.15 2.73-8.38 1.0203-24.22-10.18-25.12-0.7-14.632-19.8-22.352-31.6-28.972zm-26.119 3.2594c-3.44 6-5.2612 12.741-8.1312 19.011-9.15 14.4 18.691 36.729 25.911 15.839-6.63-10.86-11.44-23.95-17.78-34.85zm84.419 7.35c-4.1 7.63-8.9694 14.9-16.409 19.57 4.47 7.53 5.4 16.541 4.05 25.111 8.51-4.19 23.44-9.0009 19.35-21.461-1.09-7.81-2.8406-18.45-6.9906-23.22zm-600.9 630.2c-1.47 0.22-4.4009 0.67062-5.8609 0.89062-9.37 3.42-16.659 12.421-19.639 21.741 1.11 9.19 6.8591 17.259 11.339 25.219 6.62 19.02 33.261 3.2503 38.941-6.0297-19.48 0.37-32.34-25.4-24.78-41.82zm-36.311 6.5703c-13.38 19.79-7.1297 45.771 1.0703 66.461 9.78 15.01 15.15 35.36 33.1 43.08 11.75 3.87-1.1703-8.2697 4.7797-11.33 10.54-2.17 6.3597 13.38 13.58 17 12.79 4.16 25.361 9.399 38.541 12.189-0.39-5.45-7.0806-9.1703-4.7406-14.97 11.44-5.86 8.6009 17.49 18.911 11.1 23.79-11.5 56.439-30.369 53.689-60.739-14.09 13.16-35.009 24.449-54.539 17.439-10.17-5.39-0.9409-14.78-3.2609-22.63-3.5-15.63-10.229-31.37-21.669-42.85-8.8 19.8-26.18 39.83-49.42 39.75-17.31-12.86-23.021-35.08-30.041-54.5zm135.26 22.38c-7.72 11.22-20.201 18.25-32.311 23.92 1.03 8.03 3.82 16.2 0.8 24.35 3.22 13.39 21.811 7.6903 30.141 3.4703 10.77-12.72 13.62-43.041 1.3703-51.741z" fill="#db7fd6"/>
<path id="path34" d="m4116.8 188.86c-7.77 2.9-14.929 7.2212-22.759 9.9812-1.11 1.36-2.1206 3.0694-4.0406 3.2594-4.22 1.24-8.8091 1.0203-12.839 2.8703-30.13 15.96-49.21 45.399-66.07 73.889-3.05 7.15-6.1406 14.291-9.8906 21.111-1.48 4.27-2.9591 8.5397-4.3891 12.83-2.46 14.77-8.3903 28.621-11.82 43.141 27.12-33.4 46.691-75.141 82.041-100.96-24.32 34.14-50.801 66.781-75.131 100.91 39.51-43.85 78.22-88.691 115.97-134.08-12.65 8.52-23.449 19.471-36.039 28.031 14.2-20.9 30.999-39.921 44.969-60.981zm974.3 326.45c-0.1705 0.003-0.36 0.0147-0.5703 0.0344-7.3625 7.1881 5.8556-0.14198 0.5703-0.0344zm-5 6.8141c-43.98 41.48-89.119 82.23-123.81 132.17-39.44 21.61-79.631 44.81-125.04 50.93-1.76 0.44-3.5397 0.96-5.0297 2-20.84 14.45-43.781 25.549-65.911 37.809 31.95-2.39 64-5.7103 95.57-11.12 50.26-21.75 99.74-45.46 149.32-68.68 25.85-47.14 50.05-95.379 74.9-143.11zm-268.5 188.84c-3.55 0.73-7.1303 1.23-10.62 1.95l-0.7391 0.55c-8.69 12.19 6.9594 1.89 11.359-2.5zm-23.391 5.8203c-23.13 4.96-44 16.381-66.03 24.511l-0.02 0.85c0.01 1.6 0.04 4.8088 0.05 6.4188 7.68 0.49 15.321-0.84938 22.961-1.5594 0.4-0.08 1.2103-0.24031 1.6203-0.32031 16.37-7.29 33.259-15.2 41.419-29.9zm-74.119 28.211c-5.31 2.41-10.991 3.8797-16.161 6.5797 4.26 0.29 8.5409 0.14938 12.811-0.49062 0.35-0.2 1.05-0.59938 1.4-0.80938 0.61-1.77 1.23-3.5397 1.95-5.2797zm-173.7 154.56c-10.09 34.63-15.28 70.851-22.92 106.19 1.57 141.99 2.5903 284.12 7.5703 426.11 7.21 56.58 6.8703 113.81 10.32 170.68 9.89 45.95 21.539 91.531 31.989 137.36-3.01-89.43-9.56-181.43-13.4-271.89-1-24.14-3.4703-48.19-4.5703-72.32-8.21-75.48-2.6288-151.6-4.7188-227.38-1.82-89.54-1.7903-179.38-4.2703-268.75z" fill="#5aba5a"/>
<path id="path38" d="m4011 278.86c-0.96 1.05-1.9397 2.0712-2.9297 3.0812-3.48 4.26-5.6897 9.5294-7.0797 14.809 0.04 1.07 0.079 2.1403 0.1188 3.2203 3.75-6.82 6.8406-13.961 9.8906-21.111zm-526.17 57.797c-28.146 0.26012-57.51 12.873-85.1 23.064-8.72 1.73-9.1097 11.19-10.88 18.13 5.26-2.38 3.7103-15.47 12.57-11.3 2.48 10.56-6.1109 19.5-15.661 22.33-3.18 10.86-4.7597 22.16-6.3797 33.35 8.08-2.54 13.24-13.369 22.98-10.739 3.71 8.5-8.0888 8.6297-11.419 13.48-5.7 3.32-5.58 12.41-12.6 13.57-3.1 24.78-1.0409 49.879 1.3891 74.639 9.52-7.69-0.5491-31.16 13.761-29.68-0.7 12.98-0.061 33.02-12.141 40.08 2.17 25.05 8.4206 49.55 13.691 74.08 7.97-4.13 8.6288-16.02 9.3188-24.23 9.89-4.1 5.9509 7.5197 5.8109 12.73 0.93 9.42-8.7203 14.36-11.87 21.9 5.81 21.25 13.101 42.121 20.791 62.781 7.07-5.57-4.4503-29.141 9.5297-25.361 1.74 12.16-0.4906 28.911-4.4906 37.811 10.33 24.76 21.46 49.209 34.32 72.759 2.37-8.54-1.7903-17.03-1.1203-25.62 15.58-1.37 8.0206 28.011 6.3406 35.141 11.42 19.52 22.61 39.499 36.23 57.489-1.02-9.03-6.4097-17.299-5.4797-26.509 7.59-3.83 8.0391 6.14 9.5891 10.45 1.16 9.7 7.52 19.01 4.5 28.85 16.38 23.87 35.361 45.9 54.861 67.28 2.83-8.69-10.76-28.59 2.4203-30.23-62.4-73.27-115.13-158.14-135.4-253.34-21.61-96.33-2.7806-204.08 57.159-282.89-0.9053-0.0178-1.8124-0.0224-2.7203-0.0141zm-97.13 28.334c-2.76 0.95-5.4697 2.0791-7.9797 3.5891-6.69 11.72-21.38 23.29-32.97 32.65-25.35 39.57-49.641 80.151-69.891 122.64-4.41 6.5-2.4688 14.17-0.7688 21.18-2.42-1.01-3.4709-8.36-5.8109-4.55-7.5 21.26-12.86 43.22-18.9 64.93-0.83 4.51 4.9206 13.611-2.8594 14.061-13.03 26.18 0.039 55.05 5.2891 81.68 9.47-3.79 1.3603-23.12 14.72-19.82-2.16 8.87-0.2291 25.15-12.189 26.67 7.54 26.08 18.129 51.219 29.869 75.659 7.94-5.76-3.7091-31.45 10.411-28.22 0.19 11.76 2.3791 26.47-6.4609 35.72 13.12 24.04 26.77 48.701 44 69.741-2.04-9.66-3.1991-19.5-1.8891-29.38 9.68-4.86 6.0594 7.34 6.8094 12 0.28 7.48 6.0906 18.479-1.0094 23.709 11.93 17.49 25.77 33.81 40.07 49.45 5.97-1.43-7.4106-34.18 9.4594-31.28-3.13 12.77 1.3997 29.539-1.7203 40.059 12.27 13.22 24.52 26.61 38.5 38.07 1.47-4.94-9.99-29.08 4.1-26.12 0.98 11.38 4.9709 22.57 3.9609 34.08 10.58 8.68 20.189 19.031 31.739 26.291 0.13-9.55-0.8003-19.06-0.9203-28.58 17.38-2.54 3.0606 25.9 7.4906 35.05 15.43 11.55 30.63 23.439 46.68 34.159 0.67-6.3-20.05-26.67-4.3797-26.87 5.54 11.2 14.3 22.15 15.85 34.67 14.09 8.87 27.93 18.54 42.92 25.87-0.9-5.87-11.121-8.7397-6.4406-14.83 12.44 0.45 15.731 16.8 23.711 24.65 15.21 8.97 31.359 16.49 47.619 23.25-1.47-6.6-10.529-10.181-8.1188-17.561 11.39-0.25 16.189 15.671 21.839 23.861 28.37 12.02 57.59 22.139 87.53 29.539-2.49-7.54-16.5-7.2394-13.28-16.359 9.97-2.22 20.52 8.6306 21.5 17.941 35.65 9.42 73.081 12.369 109.81 9.5391-3.04-5.57-14.751-6.1603-11.341-14.47 11.2-3.95 16.3 12.671 26.02 12.741 12.52-2.52 25.919-3.9803 37.289-10.07 6.94-18.63-6.9791-19.389-18.439-26.209-1.88-12.97 12.74-0.73 18.43-0.3-0.45-20.36 1.8594-40.67 0.9094-61.03-8.61-1.52-14.859-7.65-21.939-12.1-25.74 14.33-57.15 7.9688-83.98 0.3188 0.31-0.31 0.9197-0.9291 1.2297-1.2391-60.58-6.03-118.5-31.651-167.84-67.141-98.03-71.65-169.16-175.36-215.36-286.64-40.62-100.6-65.24-214.51-33.27-321zm-147.77 291.29c-6.15 20.66-11 45.461-11.97 68.311 9.88 71.59 26.99 142.25 46.57 211.83 4.49 19.75 17.21 35.83 30.4 50.6 16.79 19.8 34.11 39.699 52.72 57.539 70.84 48.1 143.65 96.34 222.94 130.57-0.21 0.32-0.6306 0.9409-0.8406 1.2609 16.95 6.13 35 12.56 53.2 10.88 6.1-0.36 4.9506-8.2 8.0406-11.1 0.69 3.3 0.9997 6.5694 1.3297 9.9594 0.31-0.48 0.9291-1.43 1.2391-1.9 21.58 19.46 53.661 19.761 80.911 25.311 8.88-1.49 3.7003 1.8188 1.2703 1.7688 59.23 5.74 120.62 8.4312 180.02-0.4688-3.72-4.12-22.69-2.4409-19.25-14.261 7.31-2.24 12.281 5.7206 19.311 5.2406 0.49-9.05 1.3097-18.13 0.8797-27.18-5.63-2.51-14.67-7.08-13.1-14 5.08-2.51 9.2506 2.43 13.591 4.2-0.51-6.14 0.9491-13.961-1.1609-18.711-54.77 18.4-114.66 11.52-170.01-1.2297-118.05-30.98-224.69-95.3-314.3-177.67-88.46-82.93-161.34-189.49-181.79-310.95zm1592.2 50.941c-3.16 0.33-6.3106 0.83031-9.3406 1.7203-1.77 0.68-3.5297 1.3388-5.2797 2.0188-4.4 4.39-20.049 14.69-11.359 2.5-3.81 1.03-7.6 1.8109-11.3 2.9609l-0.7312 0.35938c-8.16 14.7-25.049 22.61-41.419 29.9 3.02 0.22 5.91 0.18031 9 0.0703 1.49-0.57 2.9988-1.1503 4.5188-1.7203 22.13-12.26 45.071-23.359 65.911-37.809zm-104.06 34.92c-2.44 0.54-4.8888 0.99907-7.3188 1.4891-0.19 0.34-0.56 1.0209-0.75 1.3609-0.72 1.74-1.34 3.5097-1.95 5.2797 2.94-0.02 5.7188-0.14062 8.7688-0.39062 0.33-0.33 0.98-0.99031 1.3-1.3203-0.01-1.61-0.04-4.8188-0.05-6.4188zm-975.45 59.189c1.78 11.21 10.16 6.48 0 0zm79.273 37.517c-0.4972 0.0194-1.0494 0.0615-1.6625 0.1328 3.9938 4.6125 9.1204-0.4244 1.6625-0.1328zm-264.05 36.262c0.81 11.57 4.7297 22.831 2.3297 34.541 22.44 23.4 47.121 44.871 73.911 63.141 0.32-5.8-14.571-23.12-2.1406-26.15-25.99-22.48-50.12-47.001-74.1-71.531zm348.4 21.54c-1.99 141.89-5.7 283.85-7.9 426 1.67 9.38 0.89 18.961-0.2 28.391-0.87 8.17-1.4688 16.389-0.7688 24.639 1.08 23.81 1.3291 48.05 0.039 71.73-0.6-2.87-0.9697-5.9588-1.2297-8.7688 1.71 188.83 3.9406 377.79 5.2906 566.56 24.08 27.08 59.549 39.54 91.409 55.02-10.77-19.52-12.559-42.101-15.209-63.791-21.51-212.27-15.091-425.41-10.591-638.95-35.26-150.74-45.611-306.91-60.841-460.83zm-271.23 52.47c0.04 10.27 9.3409 18.149 8.3609 28.709 19.8 15.32 42.959 27.701 66.569 35.991-0.88-6.58-5.8297-12.15-9.2297-17.63-23.46-13.44-44.28-30.74-65.7-47.07zm82.011 58.08c4.02 18.72 28.539 18.19 44.219 22.6-14.67-7.68-29.549-14.94-44.219-22.6zm180.05 23.93c-5.68 0.15-11.131 2.2406-16.761 2.9406 6.17 1.57 10.85 8.7391 17.17 9.2891-0.2-4.11-0.3094-8.1697-0.4094-12.23zm74.108 353.21c-0.3047 0.035-0.6153 0.566-0.9281 1.8281-2.34 9.39 1.5794 19.059 3.7594 5.9594-0.7344-1.7187-1.7431-7.9119-2.8313-7.7875zm5.911 21.038c-16.73 9.62-4.2597 36.83-8.0297 53.43 7.7-0.96 8.8209-14.029 17.311-16.309-3.32-12.31-6.4412-24.7-9.2812-37.12zm11.361 45.43c-7.84 4.37-8.1606 20.39-20.541 14.57 0.77 12.98-0.8694 27.531 0.6406 39.591 5.21-7.98 12.069-14.63 19.259-20.8 7.71-2.74 5.9797 9.2597 0.8797 10.48-10.07 5.42-12.549 20.309-21.559 23.709-0.43 14.71 0.66 29.491-0.85 44.191 9.28-1.41 14.53-12.58 23.22-11.95 0.89 11.26-13.781 18.669-22.191 20.659-0.08 15.06-1.0397 31.451 0.2703 45.741 3.02-4.48 5.65-9.6103 10.1-12.82 16.09-0.29-1.7997 18.531-9.5297 22.191-2.03 13.72-1.3309 30.659-0.5609 44.739 1.71-5.81 14.81-13.54 14.32-2.9297-26.21 21.11-9.2 57.281-14.2 85.561 3.14-4.42 12.55-23.791 16.2-9.4312-20.19 23.35-14.35 54.18-14.22 82.5 7.08-0.36 7.5712-12.889 15.731-9.2094 2.64 9.25-7.2412 14.669-14.031 18.109-0.84 15.38 0.4712 31.34 1.3812 46.45 3.86-5.17 7.4-15.049 15.75-12.519 1.24 9.95-9.43 16.849-15.3 23.809 0.79 23.76 3.7997 47.46 4.6297 71.25 5.79-5.3 7.7491-21.57 18.639-19.1 2.48 10.05-10.1 15.18-11.25 24.57-0.53 2.64-6.7391-0.2603-5.9891 3.0797 0.98 14.21 3.5103 28.26 4.7203 42.45 5.08-1.9 7.7997-12.54 15.53-9.0203 2.97 9.27-8.75 12.531-13.3 18.711 1.37 10.63 4.0991 21.289 8.9891 30.919 3.22-16.79 15.311 4.9112 1.7812 5.5312 29.28 12.91 59.209 24.89 90.169 33.23 5.94 1.86 16.711 4.86 15.931-5.25 3.4-12.98 0.2897 6.8294 3.4797 8.0594 10.56-0.91 21.04 1.3097 31.53 2.1797-9.83-116.15-4.2294-233.13-5.1094-349.61-71.31-86.35-113.4-193.01-144.52-299.64zm155.87 315.93c-16.12 12.83-3 37.149-7.55 55.009 8.22-3.58 14.11-13.831 22.68-17.641 7.54-2.77 6.8203 7.68 1.1703 8.5-7.69 7.53-15.55 14.821-24.22 21.311-0.88 16.26 0.1194 32.57-0.6406 48.87 7.07-2.25 14.67-5.8603 18.25-13.27 8.46-3.77 5.7709 6.84 3.1109 10.45-5.57 5.98-14.54 7.27-19.72 13.95-0.92 17.94 0.1891 35.929-0.6609 53.889 5.48-4.86 5.1903-21.649 15.77-19.239 1.32 11.46-9.6 20.34-9.9 31.85-12.21 9.38-2.42 35.119-5.6 51.239 5.81-0.99 4.8509-19.839 13.811-13.209 1.06 19.68-21.59 26.05-12.22 46.73 3.79-2.91 5.7003-10.8 11.87-7.5203 2.77 8.77-6.3809 15.141-11.311 20.831-0.39 10.2 1.1597 20.429 1.5297 30.639 6.47-2.73 11.151-13.39 18.141-9.7297 4.54 12.32-14.06 10.409-12.8 20.609 53.8 4.95 107.9 2.6303 161.79 1.4203 11.77-9.95 14.15-28.939 17.85-43.839 7.71-43.97 11.659-88.741 12.269-133.34-73.91-39.18-139.64-93.689-193.62-157.51zm198.49 164.3-0.8891 0.08c0.23 12.84-1.5906 25.609-1.9906 38.439 6.46 0.02 11.29-8.08 18.5-5.05 2.68 10.87-15.08 10.18-19.33 16.67-1.19 15.95-3.1609 31.851-4.9109 47.761 7.05-0.27 11.551-9.3503 19.231-6.4203 2.86 11.56-15.46 10.559-20.35 16.509-3.42 16.55-5.4003 33.571-11.47 49.491 6.44 1.67 31.22-16.33 29.17-0.15-9.09 6.37-28.63 2.8991-34.25 11.839 31.09-1.49 61.89-6.73 92.83-9.4 2.57-2 3.5797-10.689 4.2797-0.4094 22.12-1.9 42.979-11.23 64.159-17.48 0.07-1.61-3.0491-0.3606-2.2891-1.9906 5.82-26.51 7.4097-53.729 8.6797-80.759-44.79-16.79-90.191-33.82-131.34-58.2-2.89 2.23-10.43 4.8903-10.03-0.9297zm146.21 49.98c-2.69 4.92-1.0009 16.189-0.4609 22.009 2.11-2.77 4.0506-5.6897 5.5406-8.8297-6.21-1.62-5.3897-7.9097-5.0797-13.18zm14.339 15.78c-6.51 6.13-9.84 15.141-16.8 20.991-1.14 10.99-1.7297 22.159-3.6297 33.119 9.17-2.54 17.06-10.679 25.53-11.209 3.2 18.91-31.959 11.159-29.239 32.309 33.25-11.74 67.289-24.31 97.509-41.8-0.25-3.71 9.0606-8.5791 2.8406-10.689-25.6-6.89-50.971-14.62-76.211-22.72z" fill="#158015"/>
</g>
</g>
</svg>
